<svg xmlns="http://www.w3.org/2000/svg" width="900.135" height="553.61" viewBox="0 0 900.135 553.61">
  <g id="Code_typing-pana" data-name="Code typing-pana" transform="translate(-23.93 -29.65)">
    <g id="freepik--background-complete--inject-60" transform="translate(23.93 29.65)">
      <rect id="Retângulo_3" data-name="Retângulo 3" width="195.4" height="130.827" transform="translate(0.218 64.073)" fill="#fff"/>
      <path id="Caminho_17" data-name="Caminho 17" d="M219.535,210.54v-9.289c0-6.056,0-14.934-.064-26.314,0-22.722-.09-55.4-.154-95.237l.282.282L24.225,80.06h0l.346-.359V210.566l-.321-.321,140.77.154,40.209.09h.141l-40.145.077-140.975.167H23.93V79.2H24.3l195.374.077h.282v.269c-.064,39.914-.115,72.643-.141,95.416,0,11.342-.064,20.207-.077,26.25v6.851A12.424,12.424,0,0,1,219.535,210.54Z" transform="translate(-23.93 -15.628)" fill="#e0e0e0"/>
      <path id="Caminho_18" data-name="Caminho 18" d="M24.1,88.766c0-.192,43.7-.346,97.61-.346s97.623.154,97.623.346-43.7.359-97.623.359S24.1,88.972,24.1,88.766Z" transform="translate(-23.882 -13.019)" fill="#e0e0e0"/>
      <g id="Grupo_2" data-name="Grupo 2" transform="translate(4.786 68.294)" opacity="0.3">
        <path id="Caminho_19" data-name="Caminho 19" d="M30.791,84.445a1.565,1.565,0,1,1-1.565-1.565A1.565,1.565,0,0,1,30.791,84.445Z" transform="translate(-27.66 -82.88)" fill="#e0e0e0"/>
      </g>
      <g id="Grupo_3" data-name="Grupo 3" transform="translate(10.161 68.294)" opacity="0.3">
        <path id="Caminho_20" data-name="Caminho 20" d="M34.981,84.445a1.565,1.565,0,1,1-1.565-1.565A1.565,1.565,0,0,1,34.981,84.445Z" transform="translate(-31.85 -82.88)" fill="#e0e0e0"/>
      </g>
      <g id="Grupo_4" data-name="Grupo 4" transform="translate(15.447 68.294)" opacity="0.3">
        <path id="Caminho_21" data-name="Caminho 21" d="M39.1,84.445a1.565,1.565,0,1,1-1.565-1.565A1.565,1.565,0,0,1,39.1,84.445Z" transform="translate(-35.97 -82.88)" fill="#e0e0e0"/>
      </g>
      <rect id="Retângulo_4" data-name="Retângulo 4" width="52.115" height="52.128" transform="translate(17.012 89.399)" fill="#e0e0e0"/>
      <path id="Caminho_22" data-name="Caminho 22" d="M175.54,110.886c0,.192-20.335.346-45.405.346s-45.405-.154-45.405-.346,20.335-.346,45.405-.346S175.54,110.694,175.54,110.886Z" transform="translate(-6.724 -6.759)" fill="#e0e0e0"/>
      <path id="Caminho_23" data-name="Caminho 23" d="M175.54,118.436c0,.192-20.335.346-45.405.346s-45.405-.154-45.405-.346,20.335-.346,45.405-.346S175.54,118.244,175.54,118.436Z" transform="translate(-6.724 -4.622)" fill="#e0e0e0"/>
      <path id="Caminho_24" data-name="Caminho 24" d="M175.54,125.986c0,.192-20.335.346-45.405.346s-45.405-.154-45.405-.346,20.335-.346,45.405-.346S175.54,125.794,175.54,125.986Z" transform="translate(-6.724 -2.486)" fill="#e0e0e0"/>
      <path id="Caminho_25" data-name="Caminho 25" d="M138.4,133.536a12.521,12.521,0,0,1-2.1.141l-5.748.1c-4.863,0-11.547.1-18.975.1s-14.113,0-18.975-.1l-5.748-.1a12.826,12.826,0,0,1-2.117-.141,12.831,12.831,0,0,1,2.117-.141l5.748-.1c4.85-.064,11.547-.1,18.975-.1s14.113,0,18.975.1l5.748.1a12.523,12.523,0,0,1,2.1.141Z" transform="translate(-6.724 -0.349)" fill="#e0e0e0"/>
      <rect id="Retângulo_5" data-name="Retângulo 5" width="24.492" height="24.492" transform="translate(20.271 159.091)" fill="#e0e0e0"/>
      <rect id="Retângulo_6" data-name="Retângulo 6" width="24.492" height="24.492" transform="translate(64.688 159.091)" fill="#e0e0e0"/>
      <rect id="Retângulo_7" data-name="Retângulo 7" width="24.492" height="24.492" transform="translate(109.119 159.091)" fill="#e0e0e0"/>
      <rect id="Retângulo_8" data-name="Retângulo 8" width="24.492" height="24.492" transform="translate(153.536 159.091)" fill="#e0e0e0"/>
      <rect id="Retângulo_9" data-name="Retângulo 9" width="168.316" height="68.371" transform="translate(224.447 0.5)" fill="#fff"/>
      <path id="Caminho_26" data-name="Caminho 26" d="M367.231,98.521V80.084c0-11.8-.064-28.867-.1-50.037l.192.192-168.316.077h0l.257-.269V98.418l-.244-.257,120.678.115,35,.077h.064l-34.949.064-120.845.128h-.257V29.65h.269l168.316.09h.18V30.1c0,21.182-.077,38.285-.1,50.114V97.289A4.28,4.28,0,0,1,367.231,98.521Z" transform="translate(25.531 -29.65)" fill="#e0e0e0"/>
      <path id="Caminho_27" data-name="Caminho 27" d="M199,37.289c0-.154,37.617-.269,84.01-.269s84.036.115,84.036.269-37.617.269-84.036.269S199,37.431,199,37.289Z" transform="translate(25.614 -27.564)" fill="#e0e0e0"/>
      <g id="Grupo_5" data-name="Grupo 5" transform="translate(229.219 4.362)" opacity="0.3">
        <path id="Caminho_28" data-name="Caminho 28" d="M205.028,34.269a1.219,1.219,0,1,1-1.283-1.219A1.283,1.283,0,0,1,205.028,34.269Z" transform="translate(-202.59 -33.05)" fill="#ebebeb"/>
      </g>
      <g id="Grupo_6" data-name="Grupo 6" transform="translate(233.402 4.362)" opacity="0.3">
        <path id="Caminho_29" data-name="Caminho 29" d="M208.288,34.269a1.219,1.219,0,1,1-1.219-1.219A1.283,1.283,0,0,1,208.288,34.269Z" transform="translate(-205.85 -33.05)" fill="#ebebeb"/>
      </g>
      <g id="Grupo_7" data-name="Grupo 7" transform="translate(237.533 4.375)" opacity="0.3">
        <circle id="Elipse_1" data-name="Elipse 1" cx="1.219" cy="1.219" r="1.219" fill="#ebebeb"/>
      </g>
      <rect id="Retângulo_10" data-name="Retângulo 10" width="40.658" height="40.658" transform="translate(238.752 20.836)" fill="#e0e0e0"/>
      <path id="Caminho_30" data-name="Caminho 30" d="M341.613,54.439c0,.154-20.926.269-46.727.269s-46.727-.115-46.727-.269,20.926-.269,46.727-.269S341.613,54.3,341.613,54.439Z" transform="translate(39.525 -22.711)" fill="#e0e0e0"/>
      <path id="Caminho_31" data-name="Caminho 31" d="M341.613,60.9c0,.141-20.926.257-46.727.257s-46.727-.115-46.727-.257,20.926-.269,46.727-.269S341.613,60.745,341.613,60.9Z" transform="translate(39.525 -20.883)" fill="#e0e0e0"/>
      <path id="Caminho_32" data-name="Caminho 32" d="M308.258,67.3a2.065,2.065,0,0,1-.616,0H305.9l-6.415.09-21.259.077-21.285.026-6.415-.09h-1.758a2.155,2.155,0,0,1-.616,0,2.976,2.976,0,0,1,.616,0h1.758l6.415-.077,21.272-.09,21.259.09,6.415.077h1.745a2.822,2.822,0,0,1,.629-.1Z" transform="translate(39.523 -19.012)" fill="#e0e0e0"/>
      <path id="Caminho_33" data-name="Caminho 33" d="M684,106.687a6,6,0,0,1,.949-1.091c.757-.744,1.681-1.681,2.771-2.771,2.348-2.335,5.632-5.517,9.289-8.981l.09-.077v.462c-3.682-3.413-6.992-6.53-9.353-8.814l-2.784-2.72A6.413,6.413,0,0,1,684,81.63a5.865,5.865,0,0,1,1.129.872l2.925,2.566c2.438,2.194,5.8,5.26,9.481,8.673l.257.244-.257.231-.077.077c-3.656,3.49-6.992,6.62-9.43,8.853l-2.9,2.643a7.791,7.791,0,0,1-1.129.9Z" transform="translate(162.865 -14.94)" fill="#e0e0e0"/>
      <path id="Caminho_34" data-name="Caminho 34" d="M664.9,81.62a6.919,6.919,0,0,1-.949,1.078l-2.733,2.784c-2.348,2.322-5.632,5.5-9.289,8.981l-.09.077v-.475c3.682,3.426,6.992,6.543,9.353,8.827l2.784,2.72a5.81,5.81,0,0,1,.962,1.065,6.412,6.412,0,0,1-1.129-.885l-2.925-2.566c-2.438-2.194-5.8-5.26-9.481-8.686l-.257-.231.257-.231.077-.09c3.656-3.477,6.992-6.607,9.43-8.853l2.874-2.617a5.977,5.977,0,0,1,1.116-.9Z" transform="translate(153.568 -14.943)" fill="#e0e0e0"/>
      <path id="Caminho_35" data-name="Caminho 35" d="M667.562,113.97c-.167-.064,2.81-8.442,6.659-18.719s7.095-18.565,7.262-18.5-2.823,8.442-6.659,18.719S667.728,114.034,667.562,113.97Z" transform="translate(158.211 -16.321)" fill="#e0e0e0"/>
      <path id="Caminho_36" data-name="Caminho 36" d="M729.605,136.465V115.757c0-13.151-.077-31.947-.141-54.6l.269.269H637.358l.321-.321v75.312l-.282-.282,66.716.141,18.911.077h.1l-18.86.077-66.934.141h-.282V60.64h92.979V61.1c0,22.722-.1,41.582-.141,54.771v19.206A2.836,2.836,0,0,1,729.605,136.465Z" transform="translate(149.578 -20.88)" fill="#e0e0e0"/>
      <path id="Caminho_37" data-name="Caminho 37" d="M730.319,69.821c0,.18-20.874.321-46.611.321s-46.6-.141-46.6-.321,20.861-.321,46.6-.321S730.319,69.641,730.319,69.821Z" transform="translate(149.595 -18.373)" fill="#e0e0e0"/>
      <path id="Caminho_38" data-name="Caminho 38" d="M643.566,65.743a1.283,1.283,0,1,1-1.283-1.283A1.283,1.283,0,0,1,643.566,65.743Z" transform="translate(150.696 -19.799)" fill="#e0e0e0"/>
      <path id="Caminho_39" data-name="Caminho 39" d="M647.126,65.743a1.283,1.283,0,1,1-1.283-1.283A1.283,1.283,0,0,1,647.126,65.743Z" transform="translate(151.704 -19.799)" fill="#e0e0e0"/>
      <path id="Caminho_40" data-name="Caminho 40" d="M650.656,65.743a1.283,1.283,0,1,1-1.283-1.283A1.283,1.283,0,0,1,650.656,65.743Z" transform="translate(152.703 -19.799)" fill="#e0e0e0"/>
      <path id="Caminho_41" data-name="Caminho 41" d="M694.008,378.48c5.337-2.758,11.637-3.118,17.564-2.13,3.182.526,6.5,1.475,8.673,3.849s2.566,6.595.09,8.66a8.4,8.4,0,0,1-5.466,1.386c-4.644,0-9.8-.872-13.51,1.924-2.117,1.591-3.515,4.234-6.056,5.017a5.979,5.979,0,0,1-6.582-2.925,10.265,10.265,0,0,1-.744-7.544A11.547,11.547,0,0,1,694.008,378.48Z" transform="translate(163.878 68.322)" fill="#ebebeb"/>
      <path id="Caminho_42" data-name="Caminho 42" d="M683.729,370.176c3.272,4.657,9.622,3.118,12.56.269s4.183-6.979,5.324-10.905c2.566-8.981,5.132-18.424,3.272-27.584a15.4,15.4,0,0,0-3.528-7.505,7.993,7.993,0,0,0-7.583-2.566c-3.207.847-5.132,3.977-6.633,6.954a65.767,65.767,0,0,0-6.492,28.226c0,4.542.513,9.3,3.079,13.061" transform="translate(161.917 53.006)" fill="#ebebeb"/>
      <path id="Caminho_43" data-name="Caminho 43" d="M684.354,373.547c3.541-4.208,4.221-10.341,2.643-15.614a30.1,30.1,0,0,0-9.25-13.42,49.884,49.884,0,0,0-16.563-9.776,17.782,17.782,0,0,0-7.454-1.283,7.852,7.852,0,0,0-6.261,3.849c-1.732,3.323,0,7.364,1.745,10.649a126.316,126.316,0,0,0,10.88,16.576c3.259,4.2,6.992,8.352,11.97,10.264s10.136,1.681,12.766-1.771" transform="translate(152.324 56.319)" fill="#ebebeb"/>
      <path id="Caminho_44" data-name="Caminho 44" d="M682.9,423.8a10.633,10.633,0,0,0,.3-2.13c.154-1.54.334-3.477.565-5.786a83.522,83.522,0,0,1,1.283-8.481,66.035,66.035,0,0,1,3.092-10.02,36.95,36.95,0,0,1,5.132-9.058,19.245,19.245,0,0,1,6.415-5.376,18.19,18.19,0,0,1,5.453-1.694,9.864,9.864,0,0,0,2.1-.308,11.031,11.031,0,0,0-2.143,0,16.384,16.384,0,0,0-5.684,1.475,19.1,19.1,0,0,0-6.813,5.414,36.232,36.232,0,0,0-5.312,9.25,61.5,61.5,0,0,0-3.054,10.174,71.977,71.977,0,0,0-1.129,8.6c-.18,2.463-.257,4.452-.295,5.825A9.719,9.719,0,0,0,682.9,423.8Z" transform="translate(162.523 69.751)" fill="#e0e0e0"/>
      <path id="Caminho_45" data-name="Caminho 45" d="M683.3,431.964a4.348,4.348,0,0,0,0-.988v-2.81c0-2.451,0-5.979.128-10.341.205-8.724.962-18.116,2.412-31.343,1.373-12.445,3.22-26.943,5.132-36.36.411-2.143.834-4.067,1.283-5.748s.693-3.156,1-4.336.488-2.014.667-2.733a4.163,4.163,0,0,0,.167-.975,5.771,5.771,0,0,0-.346.924q-.308,1.052-.808,2.694c-.359,1.18-.731,2.566-1.155,4.311s-.911,3.605-1.373,5.735a319.545,319.545,0,0,0-5.427,33.73c-1.45,13.266-2.1,25.352-2.168,34.089,0,4.375,0,7.916.154,10.354.077,1.142.128,2.078.18,2.81a4.971,4.971,0,0,0,.154.988Z" transform="translate(162.528 57.138)" fill="#e0e0e0"/>
      <path id="Caminho_46" data-name="Caminho 46" d="M690.1,407.08a22.346,22.346,0,0,0,0-2.938c-.1-1.886-.372-4.619-.9-7.955a106.236,106.236,0,0,0-2.566-11.547,94.931,94.931,0,0,0-4.85-13.728,73.413,73.413,0,0,0-14.241-22.183,35.568,35.568,0,0,0-3.349-3.1c-.513-.436-.975-.872-1.437-1.219l-1.283-.9A18.3,18.3,0,0,0,659,341.93a88.09,88.09,0,0,1,8.108,7.236,76.854,76.854,0,0,1,13.882,22.093,107.908,107.908,0,0,1,4.888,13.6,114.785,114.785,0,0,1,2.63,11.432c.616,3.31.962,6,1.18,7.878a17.41,17.41,0,0,0,.411,2.912Z" transform="translate(155.79 58.723)" fill="#e0e0e0"/>
      <path id="Caminho_47" data-name="Caminho 47" d="M665.69,424.74l2.335,31.972h41.081l2.335-31.972Z" transform="translate(157.683 82.157)" fill="#e0e0e0"/>
      <rect id="Retângulo_11" data-name="Retângulo 11" width="54.617" height="12.599" transform="translate(819.396 494.286)" fill="#e0e0e0"/>
      <path id="Caminho_48" data-name="Caminho 48" d="M662.59,448.71v3.49h53.719v-3.49Z" transform="translate(156.806 88.941)" fill="#ebebeb"/>
      <path id="Caminho_49" data-name="Caminho 49" d="M667.1,457.588l-2.515-6.158h49.2l-2.938,6.158Z" transform="translate(157.372 89.711)" fill="#e0e0e0"/>
      <path id="Caminho_50" data-name="Caminho 50" d="M710.519,433.865s0,.115-.193.3l-.616.821-2.386,3.054-.1.141-.115-.141c-1.5-2.078-3.5-4.863-5.876-8.134h.346l-5.8,8.2-.18.257-.205-.244-6.864-8.16h.4l-.372.475-6.146,7.7-.205.257-.18-.269c-2.091-2.951-4.041-5.7-5.8-8.2h.334l-7.121,8.121-.128.141-.1-.154-2.232-3.759-.577-1a1.781,1.781,0,0,1-.167-.346,2.063,2.063,0,0,1,.231.308l.641.962,2.348,3.682h-.231l7.018-8.224.18-.205.154.218,5.85,8.16h-.4l6.133-7.7.372-.475.192-.244.205.244,6.838,8.185h-.321l5.85-8.16.18-.231.167.231,5.748,8.224h-.205l2.489-2.989.667-.77A1.5,1.5,0,0,1,710.519,433.865Z" transform="translate(157.836 83.476)" fill="#f5f5f5"/>
      <path id="Caminho_51" data-name="Caminho 51" d="M711.932,424.627c0,.141-10.264.257-22.991.257s-22.991-.115-22.991-.257,10.264-.257,22.991-.257S711.932,424.486,711.932,424.627Z" transform="translate(157.757 82.053)" fill="#f5f5f5"/>
      <path id="Caminho_52" data-name="Caminho 52" d="M714.433,451.757c0,.141-11.188.257-24.98.257s-24.993-.115-24.993-.257,11.188-.257,24.993-.257S714.433,451.615,714.433,451.757Z" transform="translate(157.335 89.73)" fill="#f5f5f5"/>
    </g>
    <g id="freepik--Device--inject-60" transform="translate(95.123 125.156)">
      <path id="Caminho_53" data-name="Caminho 53" d="M111.333,104.09h655.43a8.647,8.647,0,0,1,8.647,8.647V531.211A18.693,18.693,0,0,1,756.717,549.9H120.135a18.693,18.693,0,0,1-18.745-18.693V114.046a9.943,9.943,0,0,1,9.943-9.956Z" transform="translate(-73.203 -104.09)" fill="#455a64"/>
      <path id="Caminho_54" data-name="Caminho 54" d="M79.42,425.83H809.712v21.388a17.6,17.6,0,0,1-17.6,17.6H97.023a17.6,17.6,0,0,1-17.6-17.6Z" transform="translate(-79.42 -13.04)" fill="#455a64"/>
      <rect id="Retângulo_12" data-name="Retângulo 12" width="635.979" height="376.43" transform="translate(46.278 17.718)" fill="#e0e0e0"/>
      <path id="Caminho_55" data-name="Caminho 55" d="M312.29,425.83l9.058,14.408H448.865l8.416-14.408Z" transform="translate(-13.52 -13.04)" fill="#263238"/>
      <rect id="Retângulo_13" data-name="Retângulo 13" width="599.773" height="354.619" transform="translate(65.15 39.529)" fill="#263238"/>
      <path id="Caminho_56" data-name="Caminho 56" d="M166.195,477.593c-.308,0-.565-75.517-.565-168.662s.257-168.7.565-168.7.565,75.517.565,168.7S166.5,477.593,166.195,477.593Z" transform="translate(-55.023 -93.863)" fill="#e0e0e0"/>
      <path id="Caminho_57" data-name="Caminho 57" d="M160.939,164.195c0,.308-4.362.565-9.738.565s-9.751-.257-9.751-.565,4.362-.565,9.751-.565S160.939,163.887,160.939,164.195Z" transform="translate(-61.866 -87.241)" fill="#e0e0e0"/>
      <path id="Caminho_58" data-name="Caminho 58" d="M161.516,149.275c0,.308-4.362.565-9.738.565s-9.738-.257-9.738-.565,4.362-.565,9.738-.565S161.516,148.967,161.516,149.275Z" transform="translate(-61.699 -91.463)" fill="#e0e0e0"/>
      <path id="Caminho_59" data-name="Caminho 59" d="M160.939,180.275c0,.308-4.362.565-9.738.565s-9.751-.257-9.751-.565,4.362-.565,9.751-.565S160.939,179.967,160.939,180.275Z" transform="translate(-61.866 -82.69)" fill="#e0e0e0"/>
      <path id="Caminho_60" data-name="Caminho 60" d="M160.939,196.352c0,.321-4.362.565-9.738.565s-9.751-.244-9.751-.565,4.362-.552,9.751-.552S160.939,196.057,160.939,196.352Z" transform="translate(-61.866 -78.137)" fill="#e0e0e0"/>
      <path id="Caminho_61" data-name="Caminho 61" d="M160.939,212.445c0,.308-4.362.565-9.738.565s-9.751-.257-9.751-.565,4.362-.565,9.751-.565S160.939,212.124,160.939,212.445Z" transform="translate(-61.866 -73.586)" fill="#e0e0e0"/>
      <path id="Caminho_62" data-name="Caminho 62" d="M160.939,228.525c0,.308-4.362.565-9.738.565s-9.751-.257-9.751-.565,4.362-.565,9.751-.565S160.939,228.217,160.939,228.525Z" transform="translate(-61.866 -69.036)" fill="#e0e0e0"/>
      <path id="Caminho_63" data-name="Caminho 63" d="M160.939,244.6c0,.308-4.362.565-9.738.565s-9.751-.257-9.751-.565,4.362-.565,9.751-.565S160.939,244.3,160.939,244.6Z" transform="translate(-61.866 -64.485)" fill="#e0e0e0"/>
      <path id="Caminho_64" data-name="Caminho 64" d="M160.939,260.682c0,.321-4.362.565-9.738.565s-9.751-.244-9.751-.565,4.362-.552,9.751-.552S160.939,260.374,160.939,260.682Z" transform="translate(-61.866 -59.932)" fill="#e0e0e0"/>
      <path id="Caminho_65" data-name="Caminho 65" d="M160.939,276.775c0,.308-4.362.552-9.738.552s-9.751-.244-9.751-.552,4.362-.565,9.751-.565S160.939,276.454,160.939,276.775Z" transform="translate(-61.866 -55.381)" fill="#e0e0e0"/>
      <path id="Caminho_66" data-name="Caminho 66" d="M160.939,292.855c0,.308-4.362.565-9.738.565s-9.751-.257-9.751-.565,4.362-.565,9.751-.565S160.939,292.547,160.939,292.855Z" transform="translate(-61.866 -50.831)" fill="#e0e0e0"/>
      <path id="Caminho_67" data-name="Caminho 67" d="M160.939,308.935c0,.308-4.362.565-9.738.565s-9.751-.257-9.751-.565,4.362-.565,9.751-.565S160.939,308.627,160.939,308.935Z" transform="translate(-61.866 -46.28)" fill="#e0e0e0"/>
      <path id="Caminho_68" data-name="Caminho 68" d="M160.939,325.012c0,.321-4.362.565-9.738.565s-9.751-.244-9.751-.565,4.362-.552,9.751-.552S160.939,324.7,160.939,325.012Z" transform="translate(-61.866 -41.727)" fill="#e0e0e0"/>
      <path id="Caminho_69" data-name="Caminho 69" d="M160.939,341.125c0,.308-4.362.552-9.738.552s-9.751-.244-9.751-.552,4.362-.565,9.751-.565S160.939,340.778,160.939,341.125Z" transform="translate(-61.866 -37.171)" fill="#e0e0e0"/>
      <path id="Caminho_70" data-name="Caminho 70" d="M160.939,357.185c0,.308-4.362.565-9.738.565s-9.751-.257-9.751-.565,4.362-.565,9.751-.565S160.939,356.877,160.939,357.185Z" transform="translate(-61.866 -32.626)" fill="#e0e0e0"/>
      <path id="Caminho_71" data-name="Caminho 71" d="M160.939,373.265c0,.308-4.362.565-9.738.565s-9.751-.257-9.751-.565,4.362-.565,9.751-.565S160.939,372.957,160.939,373.265Z" transform="translate(-61.866 -28.075)" fill="#e0e0e0"/>
      <path id="Caminho_72" data-name="Caminho 72" d="M160.939,389.345c0,.321-4.362.565-9.738.565s-9.751-.244-9.751-.565,4.362-.565,9.751-.565S160.939,389.062,160.939,389.345Z" transform="translate(-61.866 -23.525)" fill="#e0e0e0"/>
      <path id="Caminho_73" data-name="Caminho 73" d="M228.663,163.245c0,.308-11.316.565-25.275.565s-25.288-.257-25.288-.565,11.316-.565,25.288-.565S228.663,162.937,228.663,163.245Z" transform="translate(-51.494 -87.509)" fill="var(--primary-color)"/>
      <path id="Caminho_74" data-name="Caminho 74" d="M228.663,389.345c0,.321-11.316.565-25.275.565s-25.288-.244-25.288-.565,11.316-.565,25.288-.565S228.663,389.062,228.663,389.345Z" transform="translate(-51.494 -23.525)" fill="var(--primary-color)"/>
      <path id="Caminho_75" data-name="Caminho 75" d="M293.268,196.352c0,.321-21.182.565-47.3.565s-47.3-.244-47.3-.565,21.169-.552,47.3-.552S293.268,196.057,293.268,196.352Z" transform="translate(-45.676 -78.137)" fill="var(--primary-color)"/>
      <path id="Caminho_76" data-name="Caminho 76" d="M378.551,196.352c0,.321-21.182.565-47.3.565s-47.317-.244-47.317-.565,21.182-.552,47.317-.552S378.551,196.057,378.551,196.352Z" transform="translate(-21.545 -78.137)" fill="#e0e0e0"/>
      <path id="Caminho_77" data-name="Caminho 77" d="M355.846,212.445c0,.308-31.215.565-69.718.565s-69.718-.257-69.718-.565,31.2-.565,69.718-.565S355.846,212.124,355.846,212.445Z" transform="translate(-40.653 -73.586)" fill="#e0e0e0"/>
      <path id="Caminho_78" data-name="Caminho 78" d="M355.846,228.525c0,.308-31.215.565-69.718.565s-69.718-.257-69.718-.565,31.2-.565,69.718-.565S355.846,228.217,355.846,228.525Z" transform="translate(-40.653 -69.036)" fill="#e0e0e0"/>
      <path id="Caminho_79" data-name="Caminho 79" d="M430.658,276.775c0,.308-31.228.552-69.718.552s-69.731-.244-69.731-.552,31.215-.565,69.731-.565S430.658,276.454,430.658,276.775Z" transform="translate(-19.485 -55.381)" fill="#e0e0e0"/>
      <path id="Caminho_80" data-name="Caminho 80" d="M398.366,244.6c0,.308-31.215.565-69.705.565s-69.731-.257-69.731-.565,31.215-.565,69.731-.565S398.366,244.3,398.366,244.6Z" transform="translate(-28.62 -64.485)" fill="#e0e0e0"/>
      <path id="Caminho_81" data-name="Caminho 81" d="M531.176,244.6c0,.308-31.215.565-69.7.565s-69.731-.257-69.731-.565,31.215-.565,69.731-.565S531.176,244.3,531.176,244.6Z" transform="translate(8.964 -64.485)" fill="#e0e0e0"/>
      <path id="Caminho_82" data-name="Caminho 82" d="M485,212.445c0,.308-31.228.565-69.718.565s-69.718-.257-69.718-.565,31.2-.565,69.718-.565S485,212.124,485,212.445Z" transform="translate(-4.104 -73.586)" fill="#fafafa"/>
      <path id="Caminho_83" data-name="Caminho 83" d="M560.066,276.775c0,.308-31.215.552-69.718.552s-69.718-.244-69.718-.552,31.2-.565,69.718-.565S560.066,276.454,560.066,276.775Z" transform="translate(17.14 -55.381)" fill="#fafafa"/>
      <path id="Caminho_84" data-name="Caminho 84" d="M562.078,228.525c0,.308-48.471.565-108.259.565s-108.259-.257-108.259-.565,48.459-.565,108.259-.565S562.078,228.217,562.078,228.525Z" transform="translate(-4.104 -69.036)" fill="#455a64"/>
      <path id="Caminho_85" data-name="Caminho 85" d="M228.663,180.275c0,.308-11.316.565-25.275.565s-25.288-.257-25.288-.565,11.316-.565,25.288-.565S228.663,179.967,228.663,180.275Z" transform="translate(-51.494 -82.69)" fill="#fafafa"/>
      <path id="Caminho_86" data-name="Caminho 86" d="M228.663,373.265c0,.308-11.316.565-25.275.565s-25.288-.257-25.288-.565,11.316-.565,25.288-.565S228.663,372.957,228.663,373.265Z" transform="translate(-51.494 -28.075)" fill="#fafafa"/>
      <path id="Caminho_87" data-name="Caminho 87" d="M248.156,244.6c0,.308-11.316.565-25.288.565s-25.288-.257-25.288-.565,11.329-.565,25.288-.565S248.156,244.3,248.156,244.6Z" transform="translate(-45.982 -64.485)" fill="#fafafa"/>
      <path id="Caminho_88" data-name="Caminho 88" d="M564.083,244.6c0,.308-11.316.565-25.275.565s-25.288-.257-25.288-.565,11.316-.565,25.288-.565S564.083,244.3,564.083,244.6Z" transform="translate(43.427 -64.485)" fill="var(--primary-color)"/>
      <path id="Caminho_89" data-name="Caminho 89" d="M293.268,308.845c0,.308-21.182.565-47.3.565s-47.3-.257-47.3-.565,21.169-.565,47.3-.565S293.268,308.524,293.268,308.845Z" transform="translate(-45.676 -46.306)" fill="var(--primary-color)"/>
      <path id="Caminho_90" data-name="Caminho 90" d="M378.551,308.845c0,.308-21.182.565-47.3.565s-47.317-.257-47.317-.565,21.182-.565,47.317-.565S378.551,308.524,378.551,308.845Z" transform="translate(-21.545 -46.306)" fill="#e0e0e0"/>
      <path id="Caminho_91" data-name="Caminho 91" d="M355.846,324.924c0,.308-31.215.565-69.718.565s-69.718-.257-69.718-.565,31.2-.565,69.718-.565S355.846,324.617,355.846,324.924Z" transform="translate(-40.653 -41.755)" fill="#e0e0e0"/>
      <path id="Caminho_92" data-name="Caminho 92" d="M355.846,341c0,.308-31.215.565-69.718.565s-69.718-.257-69.718-.565,31.2-.565,69.718-.565S355.846,340.7,355.846,341Z" transform="translate(-40.653 -37.205)" fill="#e0e0e0"/>
      <path id="Caminho_93" data-name="Caminho 93" d="M398.366,357.122c0,.321-31.215.565-69.705.565s-69.731-.244-69.731-.565,31.215-.552,69.731-.552S398.366,356.762,398.366,357.122Z" transform="translate(-28.62 -32.64)" fill="#e0e0e0"/>
      <path id="Caminho_94" data-name="Caminho 94" d="M531.176,357.122c0,.321-31.215.565-69.7.565s-69.731-.244-69.731-.565,31.215-.552,69.731-.552S531.176,356.762,531.176,357.122Z" transform="translate(8.964 -32.64)" fill="#e0e0e0"/>
      <path id="Caminho_95" data-name="Caminho 95" d="M485,324.924c0,.308-31.228.565-69.718.565s-69.718-.257-69.718-.565,31.2-.565,69.718-.565S485,324.617,485,324.924Z" transform="translate(-4.104 -41.755)" fill="#fafafa"/>
      <path id="Caminho_96" data-name="Caminho 96" d="M562.078,341c0,.308-48.471.565-108.259.565S345.56,341.312,345.56,341s48.459-.565,108.259-.565S562.078,340.7,562.078,341Z" transform="translate(-4.104 -37.205)" fill="#455a64"/>
      <path id="Caminho_97" data-name="Caminho 97" d="M248.156,357.122c0,.321-11.316.565-25.288.565s-25.288-.244-25.288-.565,11.329-.552,25.288-.552S248.156,356.762,248.156,357.122Z" transform="translate(-45.982 -32.64)" fill="#fafafa"/>
      <path id="Caminho_98" data-name="Caminho 98" d="M564.083,357.122c0,.321-11.316.565-25.275.565s-25.288-.244-25.288-.565,11.316-.552,25.288-.552S564.083,356.762,564.083,357.122Z" transform="translate(43.427 -32.64)" fill="var(--primary-color)"/>
      <path id="Caminho_99" data-name="Caminho 99" d="M690.656,436.074c0,.18-129.12.334-288.365.334s-288.391-.18-288.391-.334,129.095-.334,288.391-.334S690.656,435.868,690.656,436.074Z" transform="translate(-69.662 -10.236)" fill="#263238"/>
    </g>
    <g id="freepik--Plant--inject-60" transform="translate(24.174 295.255)">
      <path id="Caminho_100" data-name="Caminho 100" d="M112.479,352.562A73.208,73.208,0,0,0,42.62,333.381a127.208,127.208,0,0,0,70.693,22.08" transform="translate(-18.885 -209.944)" fill="var(--primary-color)"/>
      <path id="Caminho_101" data-name="Caminho 101" d="M83.132,295.38C86.045,274.788,78,251.63,62.6,236.67c-.5,20.4,8.109,43.352,20.528,58.71" transform="translate(-13.235 -236.67)" fill="var(--primary-color)"/>
      <path id="Caminho_102" data-name="Caminho 102" d="M99.346,323.383A109.875,109.875,0,0,0,48.86,275.13,69.384,69.384,0,0,0,99.538,323.6" transform="translate(-17.119 -225.786)" fill="var(--primary-color)"/>
      <path id="Caminho_103" data-name="Caminho 103" d="M105.329,323.45c-12.432.359-25.018-.077-37.04-3.259s-23.517-9.3-31.549-18.821a123.745,123.745,0,0,1,68.4,20.874" transform="translate(-20.549 -218.36)" fill="var(--primary-color)"/>
      <path id="Caminho_104" data-name="Caminho 104" d="M85.28,311.07c6.312-23.658,16.679-40.017,35.321-53.27A49.177,49.177,0,0,1,85.28,311.07" transform="translate(-6.812 -230.69)" fill="var(--primary-color)"/>
      <path id="Caminho_105" data-name="Caminho 105" d="M126.552,338.274A35,35,0,0,0,105.28,305.84c1.039,12.214,10.636,26.34,21.272,32.434" transform="translate(-1.152 -217.095)" fill="var(--primary-color)"/>
      <path id="Caminho_106" data-name="Caminho 106" d="M126.49,325.387a52.192,52.192,0,0,1,34.179-44.507c-4.3,19.771-15.717,36.232-34.179,44.507" transform="translate(4.85 -224.159)" fill="var(--primary-color)"/>
      <path id="Caminho_107" data-name="Caminho 107" d="M119.51,346.332c4.388-6.274,11.547-10.174,18.95-12.112s15.139-2.117,22.786-2.271a53.283,53.283,0,0,1-41.107,17.141" transform="translate(2.875 -209.706)" fill="var(--primary-color)"/>
      <path id="Caminho_108" data-name="Caminho 108" d="M112.59,383.025a58.376,58.376,0,0,1,71.283,33.781c-25.852-4.85-51.448-16.4-71.283-33.781" transform="translate(0.916 -195.99)" fill="var(--primary-color)"/>
      <path id="Caminho_109" data-name="Caminho 109" d="M92.193,368.8c4.3,12.714,3.464,28.085-6.094,39.041A46.624,46.624,0,0,1,92.193,368.8" transform="translate(-7.105 -199.278)" fill="var(--primary-color)"/>
      <path id="Caminho_110" data-name="Caminho 110" d="M83.943,363.3a47.83,47.83,0,0,1-26.417,38.823,3,3,0,0,1-2.335.385c-1.168-.475-1.283-2.066-1.129-3.323,1.873-16.281,13.946-32.075,29.881-35.924" transform="translate(-15.662 -200.846)" fill="var(--primary-color)"/>
      <path id="Caminho_111" data-name="Caminho 111" d="M81.431,362.393a39.234,39.234,0,0,1-57.311.3c18.219-1.989,39.234-3.323,57.311-.3" transform="translate(-24.12 -201.596)" fill="var(--primary-color)"/>
      <path id="Caminho_112" data-name="Caminho 112" d="M66.66,248.49a1.405,1.405,0,0,0,.167.539l.565,1.54c.513,1.386,1.283,3.361,2.194,5.9s2.117,5.7,3.426,9.353l2.1,5.85,2.245,6.582c3.233,9.225,6.813,20.3,10.687,32.627s7.788,25.981,11.714,40.376,7.3,28.226,10.264,40.774,5.286,23.979,7.044,33.6q.68,3.605,1.283,6.851t1.039,6.12c.654,3.849,1.219,7.121,1.6,9.828s.731,4.76.949,6.223q.18,1.014.269,1.617a3.489,3.489,0,0,0,.115.552,3.117,3.117,0,0,0,0-.565,16.245,16.245,0,0,0-.205-1.617c-.192-1.463-.462-3.567-.821-6.248s-.86-6.017-1.488-9.853c-.308-1.912-.641-3.964-.988-6.133s-.808-4.465-1.283-6.864c-1.706-9.635-4.093-21.028-6.9-33.653s-6.338-26.4-10.187-40.825-7.929-28.021-11.765-40.337-7.544-23.389-10.828-32.588q-1.283-3.464-2.322-6.582l-2.168-5.838c-1.283-3.644-2.566-6.774-3.528-9.315s-1.783-4.478-2.322-5.85c-.269-.641-.475-1.142-.616-1.514A3.848,3.848,0,0,0,66.66,248.49Z" transform="translate(-12.081 -233.325)" fill="#263238"/>
      <path id="Caminho_113" data-name="Caminho 113" d="M155.669,289.11a3.939,3.939,0,0,0-.321.3l-.872.911c-.757.808-1.86,2.027-3.233,3.631a126.317,126.317,0,0,0-10.726,14.267,95.993,95.993,0,0,0-11.213,24c-3.015,9.546-4.875,20.4-6.736,31.754-3.7,22.709-8.25,43.057-11.547,57.735-1.655,7.326-3,13.266-3.952,17.423-.449,2.014-.8,3.605-1.039,4.734-.115.513-.192.924-.257,1.283a1.348,1.348,0,0,0,0,.423,1.09,1.09,0,0,1,.128-.411,8.861,8.861,0,0,0,.321-1.219l1.18-4.709c.988-4.157,2.412-10.072,4.157-17.385,3.413-14.69,8.044-35.026,11.752-57.735,1.86-11.354,3.7-22.183,6.646-31.69a97.1,97.1,0,0,1,11.021-23.915,139.753,139.753,0,0,1,10.521-14.4c1.283-1.617,2.412-2.861,3.13-3.7l.821-.962Z" transform="translate(-1.017 -221.83)" fill="#263238"/>
      <path id="Caminho_114" data-name="Caminho 114" d="M64.55,361.407a2.233,2.233,0,0,0,.654.115l1.886.218,1.36.128,1.617.244c1.155.167,2.476.346,3.849.654l2.271.462,2.425.6c1.681.385,3.426,1,5.286,1.565a78.715,78.715,0,0,1,11.547,5.132,65.714,65.714,0,0,1,10.341,7.185,49.273,49.273,0,0,1,3.964,3.849,42.048,42.048,0,0,1,3.143,3.618,37.694,37.694,0,0,1,2.322,3.207,22.124,22.124,0,0,1,1.591,2.566l.962,1.629c.231.372.359.565.385.552a2,2,0,0,0-.257-.6l-.86-1.706a19.8,19.8,0,0,0-1.5-2.566,33.884,33.884,0,0,0-2.258-3.284,38.126,38.126,0,0,0-3.1-3.721,52.115,52.115,0,0,0-3.964-3.849,63.394,63.394,0,0,0-10.392-7.531,74.417,74.417,0,0,0-11.675-5.132c-1.873-.539-3.631-1.142-5.337-1.5l-2.451-.577-2.245-.372c-1.45-.3-2.784-.436-3.952-.565l-1.617-.192-1.373-.064-1.9-.077A2.425,2.425,0,0,0,64.55,361.407Z" transform="translate(-12.679 -201.38)" fill="#263238"/>
      <path id="Caminho_115" data-name="Caminho 115" d="M60.5,289.45a8.748,8.748,0,0,0,1.283,1.283L65.568,294c3.182,2.72,7.621,6.415,12.535,10.533s9.417,7.7,12.676,10.367L94.628,318a10.408,10.408,0,0,0,1.488,1.052,9.368,9.368,0,0,0-1.283-1.283l-3.746-3.233c-3.182-2.72-7.608-6.415-12.535-10.521s-9.4-7.7-12.663-10.367l-3.849-3.092a8.9,8.9,0,0,0-1.54-1.1Z" transform="translate(-13.825 -221.734)" fill="#263238"/>
      <path id="Caminho_116" data-name="Caminho 116" d="M57,308.232c0,.192,9.52,3.169,21.362,6.672s21.516,6.2,21.567,6.017-9.507-3.182-21.362-6.684S57.077,308.052,57,308.232Z" transform="translate(-14.815 -216.421)" fill="#263238"/>
      <path id="Caminho_117" data-name="Caminho 117" d="M84.54,308.255a7.415,7.415,0,0,0,.988-1.373l2.566-3.849c2.13-3.233,5.132-7.7,8.763-12.355s7.056-8.789,9.6-11.714l3.028-3.451a7.545,7.545,0,0,0,1.065-1.283,7.7,7.7,0,0,0-1.283,1.129c-.783.77-1.873,1.9-3.195,3.323-2.656,2.835-6.184,6.9-9.789,11.611s-6.595,9.2-8.635,12.509c-1.014,1.655-1.809,3.015-2.335,3.964a9.084,9.084,0,0,0-.77,1.488Z" transform="translate(-7.022 -226.041)" fill="#263238"/>
      <path id="Caminho_118" data-name="Caminho 118" d="M110.43,311.18a34.237,34.237,0,0,0,2.245,3.7c1.437,2.245,3.374,5.363,5.376,8.891s3.708,6.787,4.9,9.173a33.218,33.218,0,0,0,2.027,3.849,21.976,21.976,0,0,0-1.578-4.029c-1.091-2.438-2.72-5.748-4.747-9.3s-4.029-6.646-5.568-8.827a22.7,22.7,0,0,0-2.656-3.451Z" transform="translate(0.305 -215.584)" fill="#263238"/>
      <path id="Caminho_119" data-name="Caminho 119" d="M119.29,346.3c0,.09,1.873-.8,4.863-2.143s7.159-3.1,11.868-4.747,9.071-2.887,12.253-3.7,5.132-1.283,5.132-1.347a5.131,5.131,0,0,0-1.424.141c-.911.141-2.22.385-3.849.731a106.192,106.192,0,0,0-24.21,8.468c-1.475.731-2.656,1.36-3.451,1.822a5.529,5.529,0,0,0-1.18.77Z" transform="translate(2.812 -209.023)" fill="#263238"/>
      <path id="Caminho_120" data-name="Caminho 120" d="M112.32,382.51a2.939,2.939,0,0,0,.59.205l1.719.436,6.415,1.475a208.236,208.236,0,0,1,20.772,5.478,91.99,91.99,0,0,1,19.386,9.109c2.322,1.475,4.131,2.784,5.35,3.721a20.711,20.711,0,0,0,1.924,1.424,4.965,4.965,0,0,0-.436-.462c-.3-.282-.731-.693-1.283-1.18a57.738,57.738,0,0,0-5.247-3.913,84.8,84.8,0,0,0-19.424-9.353,173.558,173.558,0,0,0-20.9-5.312l-6.415-1.283a19.56,19.56,0,0,0-2.451-.346Z" transform="translate(0.84 -195.398)" fill="#263238"/>
      <path id="Caminho_121" data-name="Caminho 121" d="M87.1,398.723c.192,0,1.283-6.684,2.566-14.985s2.053-15.062,1.86-15.088-1.283,6.684-2.566,14.985S86.975,398.7,87.1,398.723Z" transform="translate(-6.3 -199.321)" fill="#263238"/>
      <path id="Caminho_122" data-name="Caminho 122" d="M60.84,387.988a35.558,35.558,0,0,0,3.041-3.605c1.822-2.271,4.336-5.389,7.2-8.788s5.491-6.415,7.416-8.6a37.413,37.413,0,0,0,3.079-3.618,4.785,4.785,0,0,0-.975.834c-.59.552-1.411,1.4-2.425,2.451-2.014,2.1-4.721,5.132-7.582,8.481s-5.324,6.582-7.044,8.981c-.872,1.18-1.552,2.143-2,2.81a4.683,4.683,0,0,0-.706,1.052Z" transform="translate(-13.729 -200.812)" fill="#263238"/>
      <path id="Caminho_123" data-name="Caminho 123" d="M146.135,406.91v16.64h-4.17l-14.793,46.7H94.366L80.035,424.012l-5.555-.462V406.91Z" transform="translate(-9.868 -188.493)" fill="var(--primary-color)"/>
      <g id="Grupo_8" data-name="Grupo 8" transform="translate(64.612 218.417)" opacity="0.3">
        <path id="Caminho_124" data-name="Caminho 124" d="M146.135,406.91v16.64h-4.17l-14.793,46.7H94.366L80.035,424.012l-5.555-.462V406.91Z" transform="translate(-74.48 -406.91)"/>
      </g>
      <path id="Caminho_125" data-name="Caminho 125" d="M76.64,420.316c0,.192,14.5.346,32.357.346s32.357-.154,32.357-.346-14.485-.346-32.357-.346S76.64,420.124,76.64,420.316Z" transform="translate(-9.257 -184.798)" fill="#263238"/>
      <path id="Caminho_126" data-name="Caminho 126" d="M58.25,336.79a12.828,12.828,0,0,0,2.1.565l5.761,1.4c4.85,1.193,11.547,3.015,18.745,5.453s13.651,5,18.244,6.979l5.427,2.374a13.794,13.794,0,0,0,2.014.821,12.728,12.728,0,0,0-1.9-1.065c-1.283-.642-3.066-1.527-5.35-2.566a192.762,192.762,0,0,0-18.206-7.2,188.77,188.77,0,0,0-18.86-5.273c-2.451-.539-4.439-.937-5.825-1.168a12.234,12.234,0,0,0-2.155-.321Z" transform="translate(-14.461 -208.337)" fill="#263238"/>
      <path id="Caminho_127" data-name="Caminho 127" d="M85.13,440.526c0,.192,10.174.346,22.709.346s22.7-.154,22.7-.346-10.161-.346-22.7-.346S85.13,440.334,85.13,440.526Z" transform="translate(-6.855 -179.078)" fill="#fafafa"/>
      <path id="Caminho_128" data-name="Caminho 128" d="M84.14,437.516c0,.192,10.777.346,24.056.346s24.056-.154,24.056-.346-10.764-.346-24.056-.346S84.14,437.324,84.14,437.516Z" transform="translate(-7.135 -179.93)" fill="#fafafa"/>
    </g>
    <g id="freepik--Floor--inject-60" transform="translate(29.845 576.936)">
      <path id="Caminho_129" data-name="Caminho 129" d="M902.155,456.554c0,.192-195.579.346-436.782.346s-436.833-.154-436.833-.346,195.605-.334,436.808-.334S902.155,456.374,902.155,456.554Z" transform="translate(-28.54 -456.22)" fill="#263238"/>
    </g>
    <g id="freepik--speech-bubbles--inject-60" transform="translate(439.44 88.924)">
      <path id="Caminho_130" data-name="Caminho 130" d="M691.879,76.13H348.05V289.055H637.493l17.923,41.223L671.3,289.055h20.579Z" transform="translate(-347.716 -75.771)" fill="#fafafa"/>
      <path id="Caminho_131" data-name="Caminho 131" d="M691.9,76.2c0,2.066.09,82.112.257,212.977v.257H671.374l.244-.167c-4.965,12.92-10.328,26.84-15.871,41.223l-.244.654-.282-.641c-5.62-12.907-11.688-26.879-17.962-41.223l.269.18H347.79V75.85h.308l343.842.3L348.1,76.453l.308-.308V289.122l-.334-.334h289.61l.077.18L655.721,330.2H655.2l15.935-41.184.064-.18H691.9l-.257.257C691.9,158.257,691.9,78.262,691.9,76.2Z" transform="translate(-347.79 -75.85)" fill="#263238"/>
      <path id="Caminho_132" data-name="Caminho 132" d="M691.586,92.411c0,.257-76.826.475-171.562.475s-171.575-.218-171.575-.475S425.263,92,520.025,92,691.586,92.154,691.586,92.411Z" transform="translate(-347.603 -71.28)" fill="#263238"/>
      <path id="Caminho_133" data-name="Caminho 133" d="M363.535,85.623a2.823,2.823,0,1,1-2.81-2.823A2.823,2.823,0,0,1,363.535,85.623Z" transform="translate(-344.932 -73.883)" fill="#263238"/>
      <path id="Caminho_134" data-name="Caminho 134" d="M371.485,85.623a2.823,2.823,0,1,1-2.81-2.823A2.823,2.823,0,0,1,371.485,85.623Z" transform="translate(-342.682 -73.883)" fill="#263238"/>
      <path id="Caminho_135" data-name="Caminho 135" d="M379.435,85.623a2.823,2.823,0,1,1-2.823-2.823A2.823,2.823,0,0,1,379.435,85.623Z" transform="translate(-340.432 -73.883)" fill="#263238"/>
      <path id="Caminho_136" data-name="Caminho 136" d="M379.544,122.419l-8.16,3.156,8.16,3.143v1.912l-10.264-4.067V124.6l10.264-4.08Z" transform="translate(-341.709 -63.209)" fill="#263238"/>
      <path id="Caminho_137" data-name="Caminho 137" d="M385.57,115.65h2l-7.6,21.657H378Z" transform="translate(-339.241 -64.587)" fill="#263238"/>
      <path id="Caminho_138" data-name="Caminho 138" d="M396.264,124.6v1.976L386,130.646v-1.912l8.186-3.143L386,122.422V120.51Z" transform="translate(-336.977 -63.212)" fill="#263238"/>
      <path id="Caminho_139" data-name="Caminho 139" d="M396.06,129.955a1.54,1.54,0,0,1,1.565-1.565,1.514,1.514,0,0,1,1.527,1.565,1.54,1.54,0,0,1-1.527,1.591,1.565,1.565,0,0,1-1.565-1.591Z" transform="translate(-334.13 -60.982)" fill="#263238"/>
      <path id="Caminho_140" data-name="Caminho 140" d="M400.14,129.955a1.541,1.541,0,1,1,1.565,1.591,1.553,1.553,0,0,1-1.565-1.591Z" transform="translate(-332.975 -60.982)" fill="#263238"/>
      <path id="Caminho_141" data-name="Caminho 141" d="M404.21,129.955a1.541,1.541,0,1,1,1.565,1.591,1.552,1.552,0,0,1-1.565-1.591Z" transform="translate(-331.824 -60.982)" fill="#263238"/>
      <path id="Caminho_142" data-name="Caminho 142" d="M596.576,145.815c0,.257-50.819.462-113.506.462s-113.519-.205-113.519-.462,50.819-.475,113.519-.475S596.576,145.545,596.576,145.815Z" transform="translate(-341.632 -56.185)" fill="#455a64"/>
      <path id="Caminho_143" data-name="Caminho 143" d="M580.211,146.335c0,.257-4.875.475-10.905.475s-10.906-.218-10.906-.475,4.888-.475,10.906-.475S580.211,146.04,580.211,146.335Z" transform="translate(-288.189 -56.038)" fill="#263238"/>
      <path id="Caminho_144" data-name="Caminho 144" d="M605.505,146.335c0,.257-5.337.475-11.906.475s-11.919-.218-11.919-.475,5.337-.475,11.919-.475S605.505,146.04,605.505,146.335Z" transform="translate(-281.601 -56.038)" fill="#263238"/>
      <path id="Caminho_145" data-name="Caminho 145" d="M514.058,160.725c0,.257-32.306.462-72.155.462s-72.143-.205-72.143-.462,32.293-.475,72.143-.475S514.058,160.455,514.058,160.725Z" transform="translate(-341.573 -51.965)" fill="#455a64"/>
      <path id="Caminho_146" data-name="Caminho 146" d="M513.248,216.355c0,.257-32.306.462-72.143.462s-72.155-.205-72.155-.462,32.306-.475,72.155-.475S513.248,216.1,513.248,216.355Z" transform="translate(-341.802 -36.223)" fill="#455a64"/>
      <path id="Caminho_147" data-name="Caminho 147" d="M531.75,160.725c0,.257-8.788.462-19.63.462s-19.63-.205-19.63-.462,8.789-.475,19.63-.475S531.75,160.455,531.75,160.725Z" transform="translate(-306.841 -51.965)" fill="#263238"/>
      <path id="Caminho_148" data-name="Caminho 148" d="M531.43,216.355c0,.257-8.789.462-19.63.462s-19.63-.205-19.63-.462,8.789-.475,19.63-.475S531.43,216.1,531.43,216.355Z" transform="translate(-306.932 -36.223)" fill="#263238"/>
      <path id="Caminho_149" data-name="Caminho 149" d="M379.288,168.3c0,.257-2.181.475-4.875.475s-4.863-.218-4.863-.475,2.181-.462,4.863-.462S379.288,168.045,379.288,168.3Z" transform="translate(-341.632 -49.818)" fill="var(--primary-color)"/>
      <path id="Caminho_150" data-name="Caminho 150" d="M407.954,168.465c0,.257-4.734.462-10.572.462s-10.572-.205-10.572-.462,4.734-.475,10.572-.475S407.954,168.208,407.954,168.465Z" transform="translate(-336.748 -49.775)" fill="#263238"/>
      <path id="Caminho_151" data-name="Caminho 151" d="M424,168.465c0,.257-4.054.462-9.058.462s-9.058-.205-9.058-.462,4.054-.475,9.058-.475S424,168.208,424,168.465Z" transform="translate(-331.351 -49.775)" fill="#263238"/>
      <path id="Caminho_152" data-name="Caminho 152" d="M445.292,168.465c0,.257-4.131.462-9.225.462s-9.238-.205-9.238-.462,4.131-.475,9.238-.475S445.292,168.208,445.292,168.465Z" transform="translate(-325.422 -49.775)" fill="#263238"/>
      <path id="Caminho_153" data-name="Caminho 153" d="M463.492,168.465c0,.257-3.759.462-8.391.462s-8.391-.205-8.391-.462,3.759-.475,8.391-.475S463.492,168.208,463.492,168.465Z" transform="translate(-319.796 -49.775)" fill="#263238"/>
      <path id="Caminho_154" data-name="Caminho 154" d="M537.546,168.465c0,.257-16.525.462-36.912.462s-36.924-.205-36.924-.462,16.525-.475,36.924-.475S537.546,168.208,537.546,168.465Z" transform="translate(-314.986 -49.775)" fill="#263238"/>
      <path id="Caminho_155" data-name="Caminho 155" d="M377.941,177.985c0,.257-1.873.475-4.2.475s-4.2-.218-4.2-.475,1.873-.475,4.2-.475S377.941,177.728,377.941,177.985Z" transform="translate(-341.632 -47.081)" fill="var(--primary-color)"/>
      <path id="Caminho_156" data-name="Caminho 156" d="M378.274,187.925c0,.257-1.95.475-4.362.475s-4.362-.218-4.362-.475,1.95-.475,4.362-.475S378.274,187.668,378.274,187.925Z" transform="translate(-341.632 -44.268)" fill="var(--primary-color)"/>
      <path id="Caminho_157" data-name="Caminho 157" d="M378.274,199.175c0,.257-1.95.462-4.362.462s-4.362-.205-4.362-.462,1.95-.475,4.362-.475S378.274,198.905,378.274,199.175Z" transform="translate(-341.632 -41.084)" fill="var(--primary-color)"/>
      <path id="Caminho_158" data-name="Caminho 158" d="M452.7,198.642c0,.269-14.575.475-32.549.475s-32.549-.205-32.549-.475,14.575-.462,32.549-.462S452.7,198.385,452.7,198.642Z" transform="translate(-336.524 -41.232)" fill="#263238"/>
      <path id="Caminho_159" data-name="Caminho 159" d="M447.594,187.925c0,.257-13.908.475-31.048.475s-31.036-.218-31.036-.475,13.895-.475,31.036-.475S447.594,187.668,447.594,187.925Z" transform="translate(-337.116 -44.268)" fill="#263238"/>
      <path id="Caminho_160" data-name="Caminho 160" d="M597.454,177.465c0,.257-47.342.462-105.706.462s-105.719-.205-105.719-.462,47.317-.475,105.719-.475S597.454,177.2,597.454,177.465Z" transform="translate(-336.968 -47.228)" fill="#263238"/>
      <path id="Caminho_161" data-name="Caminho 161" d="M638.706,144V324.953L610.57,348.419H757.716V144Z" transform="translate(-273.425 -56.564)" fill="#fafafa"/>
      <path id="Caminho_162" data-name="Caminho 162" d="M638.893,144.028h31.934L757.9,143.9h.257v.257c0,54.617,0,125.951.077,204.419v.334H609.91l.654-.552,28.149-23.466-.115.231c.064-54.1.115-99.368.154-131.122,0-15.845.064-28.316.077-36.835v.18c0,8.532,0,21.028.077,36.886,0,31.716.077,76.98.141,130.942v.128l-.1.09-28.123,23.492-.205-.552H757.762l-.334.334c0-78.468,0-149.8.077-204.419l.257.244-86.923-.128-23.607-.334h-8.339Z" transform="translate(-273.612 -56.592)" fill="#263238"/>
      <path id="Caminho_163" data-name="Caminho 163" d="M641.994,151.532a2.412,2.412,0,1,1-2.412-2.412A2.412,2.412,0,0,1,641.994,151.532Z" transform="translate(-265.898 -55.115)" fill="#263238"/>
      <path id="Caminho_164" data-name="Caminho 164" d="M648.794,151.532a2.412,2.412,0,1,1-2.412-2.412A2.412,2.412,0,0,1,648.794,151.532Z" transform="translate(-263.973 -55.115)" fill="#263238"/>
      <path id="Caminho_165" data-name="Caminho 165" d="M655.594,151.532a2.412,2.412,0,1,1-2.412-2.412A2.412,2.412,0,0,1,655.594,151.532Z" transform="translate(-262.049 -55.115)" fill="#263238"/>
      <path id="Caminho_166" data-name="Caminho 166" d="M714.623,194.555c0,.218-15.088.385-33.691.385s-33.691-.167-33.691-.385,15.075-.385,33.691-.385S714.623,194.337,714.623,194.555Z" transform="translate(-263.048 -42.366)" fill="var(--primary-color)"/>
      <path id="Caminho_167" data-name="Caminho 167" d="M728.832,207.315c0,.205-18.36.385-41.056.385s-41.056-.18-41.056-.385,18.36-.385,41.056-.385S728.832,207.1,728.832,207.315Z" transform="translate(-263.195 -38.755)" fill="var(--primary-color)"/>
      <path id="Caminho_168" data-name="Caminho 168" d="M732.609,254.915c0,.218-19.578.385-43.724.385s-43.724-.167-43.724-.385,19.578-.385,43.724-.385S732.609,254.71,732.609,254.915Z" transform="translate(-263.637 -25.285)" fill="var(--primary-color)"/>
      <path id="Caminho_169" data-name="Caminho 169" d="M654,213.8a22.709,22.709,0,0,1-8.327,0,22.708,22.708,0,0,1,8.327,0Z" transform="translate(-263.492 -36.919)" fill="var(--primary-color)"/>
      <path id="Caminho_170" data-name="Caminho 170" d="M678.512,213.935c0,.218-4.054.385-8.981.385s-8.981-.167-8.981-.385a106.486,106.486,0,0,1,18.09,0Z" transform="translate(-259.281 -36.882)" fill="var(--primary-color)"/>
      <path id="Caminho_171" data-name="Caminho 171" d="M692.28,213.935c0,.218-3.464.385-7.7.385s-7.762-.167-7.762-.385a78.326,78.326,0,0,1,15.511,0Z" transform="translate(-254.677 -36.882)" fill="var(--primary-color)"/>
      <path id="Caminho_172" data-name="Caminho 172" d="M652.855,222.085a16.961,16.961,0,0,1-7.185,0A16.961,16.961,0,0,1,652.855,222.085Z" transform="translate(-263.492 -34.576)" fill="var(--primary-color)"/>
      <path id="Caminho_173" data-name="Caminho 173" d="M653.137,230.6a18.3,18.3,0,0,1-7.467,0,17.719,17.719,0,0,1,7.467,0Z" transform="translate(-263.492 -32.17)" fill="var(--primary-color)"/>
      <path id="Caminho_174" data-name="Caminho 174" d="M653.137,240.215a18.3,18.3,0,0,1-7.467,0,18.3,18.3,0,0,1,7.467,0Z" transform="translate(-263.492 -29.445)" fill="var(--primary-color)"/>
      <path id="Caminho_175" data-name="Caminho 175" d="M716.828,239.765c0,.218-12.471.385-27.854.385s-27.854-.167-27.854-.385,12.471-.385,27.854-.385S716.828,239.56,716.828,239.765Z" transform="translate(-259.12 -29.572)" fill="var(--primary-color)"/>
      <path id="Caminho_176" data-name="Caminho 176" d="M712.446,230.6c0,.205-11.893.385-26.558.385s-26.558-.18-26.558-.385,11.88-.4,26.558-.4S712.446,230.38,712.446,230.6Z" transform="translate(-259.627 -32.17)" fill="var(--primary-color)"/>
      <path id="Caminho_177" data-name="Caminho 177" d="M657.377,267.625a18.3,18.3,0,0,1-7.467,0,18.3,18.3,0,0,1,7.467,0Z" transform="translate(-262.292 -21.688)" fill="var(--primary-color)"/>
      <path id="Caminho_178" data-name="Caminho 178" d="M657.377,277.258a18.3,18.3,0,0,1-7.467,0,17.717,17.717,0,0,1,7.467,0Z" transform="translate(-262.292 -18.966)" fill="var(--primary-color)"/>
      <path id="Caminho_179" data-name="Caminho 179" d="M721.068,276.8c0,.205-12.471.385-27.854.385s-27.854-.18-27.854-.385,12.458-.385,27.854-.385S721.068,276.587,721.068,276.8Z" transform="translate(-257.92 -19.09)" fill="var(--primary-color)"/>
      <path id="Caminho_180" data-name="Caminho 180" d="M716.719,267.625c0,.218-11.893.385-26.558.385s-26.571-.167-26.571-.385,11.893-.385,26.571-.385S716.719,267.407,716.719,267.625Z" transform="translate(-258.421 -21.688)" fill="var(--primary-color)"/>
      <path id="Caminho_181" data-name="Caminho 181" d="M732.079,221.635c0,.218-16.191.385-36.155.385s-36.155-.167-36.155-.385,16.191-.385,36.155-.385S732.079,221.43,732.079,221.635Z" transform="translate(-259.502 -34.703)" fill="var(--primary-color)"/>
      <path id="Caminho_182" data-name="Caminho 182" d="M750.137,158.465c0,.205-26.135.385-58.363.385s-58.363-.18-58.363-.385,26.122-.385,58.363-.385S750.137,158.247,750.137,158.465Z" transform="translate(-266.962 -52.58)" fill="#263238"/>
      <path id="Caminho_183" data-name="Caminho 183" d="M671.869,186.865a197.669,197.669,0,0,1-24.659,0c0-.218,5.517-.385,12.329-.385S671.869,186.647,671.869,186.865Z" transform="translate(-263.056 -44.543)" fill="var(--primary-color)"/>
      <path id="Caminho_184" data-name="Caminho 184" d="M658.114,169.455c0,.218-2.566.385-5.812.385s-5.812-.167-5.812-.385a44.072,44.072,0,0,1,11.624,0Z" transform="translate(-263.26 -49.469)" fill="var(--primary-color)"/>
    </g>
    <g id="freepik--Character--inject-60" transform="translate(585.554 240.652)">
      <path id="Caminho_185" data-name="Caminho 185" d="M604.827,403.509l25.839-25.544-46.085-78.917a44.468,44.468,0,0,0-17.68-12.3l-16.23-6.171-40.35-7.4L481.685,284.5a17.128,17.128,0,0,0-10.739,17.962l7.493,63.072,4.414,82.112L586.942,429.58l-10.469-30.368.346-47.368Z" transform="translate(-459.086 -171.738)" fill="var(--primary-color)"/>
      <path id="Caminho_186" data-name="Caminho 186" d="M554.092,385.985c.244,0,.308-16.409.141-36.642s-.488-36.642-.731-36.642-.308,16.409-.141,36.642S553.848,385.985,554.092,385.985Z" transform="translate(-435.756 -160.551)" fill="#263238"/>
      <path id="Caminho_187" data-name="Caminho 187" d="M576.2,406.727l-62.867-25.313a14.408,14.408,0,0,1-8.981-12.24l-4.593-60.3s.539-25.66-15.473-26.943l-9.122,3.58c-11.791,6.312-14.7,23.453-13.074,36.694,2.271,18.809,3.22,45.431,5.773,61.763,2.091,13.356,10.11,23.915,22.812,28.547l77.467,16.769Z" transform="translate(-461.676 -169.259)" fill="var(--primary-color)"/>
      <path id="Caminho_188" data-name="Caminho 188" d="M492.06,310.1a10.1,10.1,0,0,1,.192,1.373c.1.988.244,2.309.411,3.977.321,3.528.77,8.506,1.283,14.626s1.155,13.548,1.86,21.7c.167,2.04.346,4.131.526,6.274a48.227,48.227,0,0,0,.808,6.415,10.713,10.713,0,0,0,3.118,5.645,21.1,21.1,0,0,0,5.812,3.605c17.333,7.506,33.358,13.7,44.9,18.052l13.779,5.132,3.746,1.373a7.433,7.433,0,0,1,1.283.539,9.642,9.642,0,0,1-1.283-.372l-3.849-1.283c-3.3-1.091-8.044-2.733-13.882-4.824-11.662-4.221-27.674-10.264-45.072-17.846a21.978,21.978,0,0,1-6.03-3.772,11.445,11.445,0,0,1-3.349-6.069,47.715,47.715,0,0,1-.8-6.569q-.269-3.207-.5-6.274c-.641-8.16-1.206-15.511-1.694-21.721s-.8-11.1-1.065-14.639c-.1-1.668-.18-3-.244-3.99A10.265,10.265,0,0,1,492.06,310.1Z" transform="translate(-453.09 -161.287)" fill="#263238"/>
      <path id="Caminho_189" data-name="Caminho 189" d="M464.02,335.65a2.387,2.387,0,0,1,.128.808c0,.629.128,1.4.205,2.322.192,2.155.449,5.042.744,8.558s.783,7.9,1.411,12.65a120.936,120.936,0,0,0,2.848,15.28,22.53,22.53,0,0,0,3.066,7.275,41.6,41.6,0,0,0,4.7,5.773,40.132,40.132,0,0,0,10.071,7.557,37.925,37.925,0,0,0,11.047,3.618,3.658,3.658,0,0,1-.821,0,16.789,16.789,0,0,1-2.335-.3,30.922,30.922,0,0,1-8.224-2.8,39.619,39.619,0,0,1-10.341-7.531,40.8,40.8,0,0,1-4.824-5.863,23.3,23.3,0,0,1-3.208-7.518,115.2,115.2,0,0,1-2.8-15.4c-.577-4.773-.962-9.084-1.283-12.7s-.4-6.556-.475-8.583v-2.348a3.307,3.307,0,0,1,.09-.808Z" transform="translate(-461.038 -154.056)" fill="#263238"/>
      <path id="Caminho_190" data-name="Caminho 190" d="M484.93,371.818a9.147,9.147,0,0,1,1.142-3.361,21.567,21.567,0,0,1,12.753-10.893,9.172,9.172,0,0,1,3.49-.6c0,.141-1.283.4-3.284,1.168a25.136,25.136,0,0,0-7.133,4.234,24.747,24.747,0,0,0-5.3,6.415C485.52,370.6,485.02,371.856,484.93,371.818Z" transform="translate(-455.095 -148.026)" fill="#263238"/>
      <g id="Grupo_9" data-name="Grupo 9" transform="translate(41.023 166.737)" opacity="0.3">
        <path id="Caminho_191" data-name="Caminho 191" d="M549.075,387.617c-6.723-3.849-13.3-6.723-20.335-9.918s-13.92-7.3-18.514-13.5c-8.686-11.7-7.7-28.585-16.576-40.132l1.732,23.286c.539,7.121-.552,14.113,4.029,18.988,3.849,4.067,11.393,7.2,16.679,8.981,10.713,3.528,22.247,8.776,32.947,12.317" transform="translate(-493.65 -324.07)"/>
      </g>
      <path id="Caminho_192" data-name="Caminho 192" d="M553.45,316.16l5.44,33.563-5.145-9.507Z" transform="translate(-435.704 -159.572)" opacity="0.3"/>
      <path id="Caminho_193" data-name="Caminho 193" d="M498.709,300.053a5.451,5.451,0,0,1-1.45.115l-3.977.1c-3.349.09-7.967.257-13.061.616s-9.687.86-13.022,1.283l-3.939.462a7.188,7.188,0,0,1-1.45.1,5.132,5.132,0,0,1,1.411-.359c.924-.192,2.258-.423,3.849-.68,3.323-.513,7.929-1.078,13.035-1.45s9.751-.462,13.112-.423c1.681,0,3.041.064,3.977.115a7.01,7.01,0,0,1,1.514.116Z" transform="translate(-461.638 -164.198)" fill="#455a64"/>
      <path id="Caminho_194" data-name="Caminho 194" d="M500.136,325.069c0,.18-8.237,1.014-18.411,1.848s-18.462,1.386-18.475,1.193,8.224-1.014,18.411-1.86S500.136,324.876,500.136,325.069Z" transform="translate(-461.23 -157.062)" fill="#455a64"/>
      <path id="Caminho_195" data-name="Caminho 195" d="M502.446,351.37a6.867,6.867,0,0,1-1.283.744c-.86.449-2.117,1.039-3.721,1.706a76.9,76.9,0,0,1-26.211,5.876,35.588,35.588,0,0,1-4.093,0,5.632,5.632,0,0,1-1.488-.115,7.355,7.355,0,0,1,1.488-.141c.962,0,2.348-.115,4.067-.257a94.631,94.631,0,0,0,13.215-1.873,93.472,93.472,0,0,0,12.83-3.849c1.6-.616,2.9-1.129,3.849-1.5a6.414,6.414,0,0,1,1.347-.59Z" transform="translate(-460.551 -149.608)" fill="#455a64"/>
      <path id="Caminho_196" data-name="Caminho 196" d="M514.095,364.87a33,33,0,0,0-6.235,5,34.843,34.843,0,0,0-4.349,6.71,6.415,6.415,0,0,1,.693-2.3,18.309,18.309,0,0,1,7.7-8.493,5.94,5.94,0,0,1,2.194-.924Z" transform="translate(-449.837 -145.787)" fill="#455a64"/>
      <path id="Caminho_197" data-name="Caminho 197" d="M529.49,384.9a24.442,24.442,0,0,1,6.723-12.265c.154.128-1.822,2.566-3.669,5.966S529.682,384.96,529.49,384.9Z" transform="translate(-442.485 -143.591)" fill="#455a64"/>
      <path id="Caminho_198" data-name="Caminho 198" d="M505.492,285.3a63.435,63.435,0,0,1-8.891,1.95,62.49,62.49,0,0,1-8.981,1.283,60.807,60.807,0,0,1,8.891-1.95A62.484,62.484,0,0,1,505.492,285.3Z" transform="translate(-454.334 -168.305)" fill="#455a64"/>
      <path id="Caminho_199" data-name="Caminho 199" d="M553.9,288.085a115.836,115.836,0,0,1-12.342-1.129,112.592,112.592,0,0,1-12.253-1.8,120.033,120.033,0,0,1,12.342,1.129,116.481,116.481,0,0,1,12.253,1.8Z" transform="translate(-442.536 -168.345)" fill="#455a64"/>
      <path id="Caminho_200" data-name="Caminho 200" d="M569.55,309.382a2.653,2.653,0,0,1-.783,0H558.208c-7.005,0-16.679,0-27.366.321s-20.348.718-27.353,1.091l-8.288.436-2.245.09a2.68,2.68,0,0,1-.8,0,4.336,4.336,0,0,1,.783-.116l2.245-.231c1.95-.18,4.773-.4,8.275-.641,6.992-.488,16.679-1,27.366-1.283s20.374-.257,27.392-.128c3.5.064,6.338.141,8.288.231l2.258.1A4.193,4.193,0,0,1,569.55,309.382Z" transform="translate(-453.049 -161.647)" fill="#455a64"/>
      <path id="Caminho_201" data-name="Caminho 201" d="M569.326,336.915c0,.18-16.486,1.411-36.848,2.758s-36.886,2.271-36.9,2.091,16.486-1.424,36.848-2.758S569.314,336.723,569.326,336.915Z" transform="translate(-452.081 -153.705)" fill="#455a64"/>
      <path id="Caminho_202" data-name="Caminho 202" d="M559.883,361.26a7.387,7.387,0,0,1-1.386.59c-.911.346-2.232.8-3.849,1.283-3.3,1.078-7.9,2.425-13.048,3.669s-9.853,2.13-13.279,2.656c-1.719.282-3.1.475-4.067.577a7.8,7.8,0,0,1-1.514.1,6.852,6.852,0,0,1,1.475-.359l4.016-.783c3.4-.654,8.083-1.617,13.215-2.848s9.738-2.5,13.061-3.464l3.939-1.142a5.954,5.954,0,0,1,1.437-.282Z" transform="translate(-444.395 -146.809)" fill="#455a64"/>
      <path id="Caminho_203" data-name="Caminho 203" d="M577.583,317.12a114.738,114.738,0,0,1-11.983,3.438,116.814,116.814,0,0,1-12.15,2.8,117.115,117.115,0,0,1,11.983-3.438A113.751,113.751,0,0,1,577.583,317.12Z" transform="translate(-435.704 -159.3)" fill="#455a64"/>
      <path id="Caminho_204" data-name="Caminho 204" d="M564.819,298.43a21.953,21.953,0,0,1-5.3,1.283,22.6,22.6,0,0,1-5.44.641,23.094,23.094,0,0,1,5.312-1.283,22.52,22.52,0,0,1,5.427-.642Z" transform="translate(-435.526 -164.589)" fill="#455a64"/>
      <path id="Caminho_205" data-name="Caminho 205" d="M497.948,309.411c-.128,0-.334-2.13-1.5-5.35a27.084,27.084,0,0,0-19.065-17.141c-3.336-.821-5.5-.783-5.491-.911a5.62,5.62,0,0,1,1.514-.064,23.484,23.484,0,0,1,4.08.526,26.1,26.1,0,0,1,19.4,17.436,21.989,21.989,0,0,1,.949,4,5.518,5.518,0,0,1,.115,1.5Z" transform="translate(-458.785 -168.129)" fill="#263238"/>
      <path id="Caminho_206" data-name="Caminho 206" d="M550.6,290.9a103.056,103.056,0,0,1,2.22,11.727,103.725,103.725,0,0,1,1.552,11.842,108.374,108.374,0,0,1-2.207-11.739A106.074,106.074,0,0,1,550.6,290.9Z" transform="translate(-436.511 -166.72)" fill="#263238"/>
      <path id="Caminho_207" data-name="Caminho 207" d="M607.7,438.29s48.343,13.369,50.28,14.113c2.912,1.026,2.425,11.688-2.1,11.547-2.143-.077-37.13,1.283-41.556,1.026s-17.757-5.53-17.757-5.53Z" transform="translate(-423.504 -125.01)" fill="var(--primary-color)"/>
      <path id="Caminho_208" data-name="Caminho 208" d="M620.961,454.778c.244,0,.564-2.566,2.13-5.132s3.567-4.26,3.413-4.452-2.489,1.18-4.119,4.041S620.755,454.8,620.961,454.778Z" transform="translate(-416.626 -123.061)" fill="#263238"/>
      <path id="Caminho_209" data-name="Caminho 209" d="M617.014,452.915c.231,0,.718-2.245,2.014-4.773s2.81-4.285,2.566-4.452a9.212,9.212,0,0,0-3.361,4.093C617.014,450.5,616.822,452.9,617.014,452.915Z" transform="translate(-417.734 -123.482)" fill="#263238"/>
      <path id="Caminho_210" data-name="Caminho 210" d="M613.386,452.031c.244,0,0-2.438,1.129-5.132s2.81-4.336,2.643-4.516-2.271,1.283-3.387,4.234S613.194,452.16,613.386,452.031Z" transform="translate(-418.828 -123.856)" fill="#263238"/>
      <path id="Caminho_211" data-name="Caminho 211" d="M614.836,447.478a8.621,8.621,0,0,0,.526-3.605,17.4,17.4,0,0,0-.5-3.939,15.113,15.113,0,0,0-.719-2.245,2.681,2.681,0,0,0-.77-1.18,1.283,1.283,0,0,0-1.655.077,2.143,2.143,0,0,0-.654,1.373,10.815,10.815,0,0,0,0,1.283,10.023,10.023,0,0,0,.3,2.373,14.663,14.663,0,0,0,1.488,3.7,9.982,9.982,0,0,0,2.168,2.912c.115-.077-.693-1.206-1.668-3.182a16.433,16.433,0,0,1-1.283-3.592,11.1,11.1,0,0,1-.231-2.207c0-.744,0-1.668.449-2.027a.462.462,0,0,1,.641,0,1.923,1.923,0,0,1,.526.847,16.767,16.767,0,0,1,.731,2.13,19.16,19.16,0,0,1,.642,3.772C614.913,446.2,614.7,447.478,614.836,447.478Z" transform="translate(-419.405 -125.589)" fill="#263238"/>
      <path id="Caminho_212" data-name="Caminho 212" d="M616.13,444.767a6.761,6.761,0,0,0-3.13-.513,14.11,14.11,0,0,0-3.426.423,7.464,7.464,0,0,0-1.976.731,2.053,2.053,0,0,0-1.091,2.207,2.387,2.387,0,0,0,1.745,1.719,4.428,4.428,0,0,0,2.168,0,8.573,8.573,0,0,0,3.143-1.552,8.878,8.878,0,0,0,2.245-2.22,21.046,21.046,0,0,0-2.566,1.745,8.492,8.492,0,0,1-2.964,1.283,3.7,3.7,0,0,1-1.8,0,1.655,1.655,0,0,1-1.18-1.142,1.283,1.283,0,0,1,.718-1.36,7.7,7.7,0,0,1,1.758-.68,16.407,16.407,0,0,1,3.259-.565C614.847,444.7,616.04,444.9,616.13,444.767Z" transform="translate(-420.699 -123.327)" fill="#263238"/>
      <path id="Caminho_213" data-name="Caminho 213" d="M626.811,454.871c.231,0,0-2.091.949-4.362s2.566-3.605,2.361-3.785-2.091.949-3.1,3.477S626.605,454.948,626.811,454.871Z" transform="translate(-415.047 -122.628)" fill="#263238"/>
      <path id="Caminho_214" data-name="Caminho 214" d="M600.44,454.813a9.819,9.819,0,0,0,1.86.872,40.449,40.449,0,0,0,5.389,1.668,76.564,76.564,0,0,0,18.449,1.745c7.249-.077,13.779-.4,18.514-.59l5.594-.3a10.83,10.83,0,0,0,2.053-.218,9.349,9.349,0,0,0-2.066-.1h-5.607l-18.488.359a87.1,87.1,0,0,1-18.334-1.488C603.186,455.852,600.491,454.659,600.44,454.813Z" transform="translate(-422.406 -120.338)" fill="#263238"/>
      <path id="Caminho_215" data-name="Caminho 215" d="M599.32,456.568c0,.1,1.386-.667,3.618-1.642a16.781,16.781,0,0,1,9.148-1.527A14.51,14.51,0,0,1,620,458.108a28.964,28.964,0,0,0,2.784,2.848,14.983,14.983,0,0,0-2.374-3.246,19.239,19.239,0,0,0-3.195-2.989,11.546,11.546,0,0,0-5-2.117,15.961,15.961,0,0,0-9.456,1.822A12.625,12.625,0,0,0,599.32,456.568Z" transform="translate(-422.723 -120.99)" fill="#263238"/>
      <path id="Caminho_216" data-name="Caminho 216" d="M571.306,429.54s-45.739,29.945-47.394,31.19c-2.463,1.86.359,10.726,4.632,9.186,2.014-.718,40.4-11.406,44.533-13.01s15.242-10.662,15.242-10.662Z" transform="translate(-444.323 -127.486)" fill="var(--primary-color)"/>
      <path id="Caminho_217" data-name="Caminho 217" d="M551.868,449.655c.193,0-.616-2.681-3.066-4.888s-5.132-2.81-5.132-2.566,2.335,1.1,4.606,3.195S551.65,449.771,551.868,449.655Z" transform="translate(-438.472 -123.917)" fill="#263238"/>
      <path id="Caminho_218" data-name="Caminho 218" d="M554.854,446.743c.193-.064-.693-2.374-2.784-4.49s-4.362-3.079-4.439-2.887,1.886,1.411,3.849,3.451S554.636,446.858,554.854,446.743Z" transform="translate(-437.352 -124.712)" fill="#263238"/>
      <path id="Caminho_219" data-name="Caminho 219" d="M557.9,444.826c.205,0,0-2.566-2-5.029s-4.465-3.195-4.5-2.989,2.078,1.283,3.849,3.5S557.674,444.89,557.9,444.826Z" transform="translate(-436.285 -125.439)" fill="#263238"/>
      <path id="Caminho_220" data-name="Caminho 220" d="M554.892,441.135c.116,0-.513-1.283-1.039-3.426a20,20,0,0,1-.539-3.785,19.261,19.261,0,0,1,0-2.258,2.038,2.038,0,0,1,.244-.962.475.475,0,0,1,.629-.141c.526.205.8,1.091,1.039,1.8a10.36,10.36,0,0,1,.449,2.168,15.837,15.837,0,0,1-.115,3.849c-.321,2.168-.744,3.49-.616,3.528a9.738,9.738,0,0,0,1.18-3.426,14.6,14.6,0,0,0,.295-3.977,10.467,10.467,0,0,0-.436-2.348,9.776,9.776,0,0,0-.449-1.193,2.129,2.129,0,0,0-1.026-1.1,1.283,1.283,0,0,0-1.6.423,2.785,2.785,0,0,0-.385,1.36,18.115,18.115,0,0,0,0,2.361,16.5,16.5,0,0,0,.731,3.849,8.392,8.392,0,0,0,1.642,3.284Z" transform="translate(-435.979 -127.432)" fill="#263238"/>
      <path id="Caminho_221" data-name="Caminho 221" d="M554.28,438.7c.064.115,1.129-.423,2.977-.872a16.509,16.509,0,0,1,3.272-.449,7.7,7.7,0,0,1,1.886.115,1.283,1.283,0,0,1,1.091,1.065,1.668,1.668,0,0,1-.77,1.463,3.848,3.848,0,0,1-1.706.565,8.479,8.479,0,0,1-3.208-.321,22.99,22.99,0,0,0-2.989-.885,8.377,8.377,0,0,0,2.823,1.424,8.249,8.249,0,0,0,3.451.526,4.567,4.567,0,0,0,2.078-.654,2.425,2.425,0,0,0,1.129-2.181,2.04,2.04,0,0,0-1.706-1.771,7.928,7.928,0,0,0-2.1-.09,14.118,14.118,0,0,0-3.4.641A7.006,7.006,0,0,0,554.28,438.7Z" transform="translate(-435.469 -125.487)" fill="#263238"/>
      <path id="Caminho_222" data-name="Caminho 222" d="M532.93,462.2c0,.077.77-.462,1.129-1.771a6.736,6.736,0,0,0-.86-4.965,17.244,17.244,0,0,0-1.54-2.284,8.187,8.187,0,0,0-1.552-1.668,2.81,2.81,0,0,0-1.463-.616c-.372,0-.577.077-.565.128a4.362,4.362,0,0,1,1.668.924,10.955,10.955,0,0,1,1.283,1.668,25.807,25.807,0,0,1,1.437,2.232,7.134,7.134,0,0,1,1,4.465,18.017,18.017,0,0,1-.539,1.886Z" transform="translate(-442.884 -121.441)" fill="#263238"/>
      <path id="Caminho_223" data-name="Caminho 223" d="M545.9,451.648c.218,0,.154-2.309-1.6-4.388s-4.016-2.566-4.029-2.361a19.678,19.678,0,0,1,3.4,2.887C545.222,449.7,545.671,451.687,545.9,451.648Z" transform="translate(-439.434 -123.152)" fill="#263238"/>
      <path id="Caminho_224" data-name="Caminho 224" d="M583,443.82a14.571,14.571,0,0,0-2.014,1.386,58.33,58.33,0,0,1-5.632,3.451,75.038,75.038,0,0,1-8.981,3.99c-3.464,1.283-7.352,2.5-11.457,3.7-8.237,2.374-15.691,4.542-21.067,6.158l-6.415,1.95a13.162,13.162,0,0,0-2.3.821,15.284,15.284,0,0,0,2.386-.526l6.415-1.694c5.414-1.475,12.83-3.554,21.118-5.927,4.118-1.193,8.019-2.438,11.547-3.785a67.725,67.725,0,0,0,8.981-4.183,44,44,0,0,0,5.555-3.708A11.752,11.752,0,0,0,583,443.82Z" transform="translate(-443.716 -123.445)" fill="#263238"/>
      <path id="Caminho_225" data-name="Caminho 225" d="M576.193,444.588a12.458,12.458,0,0,0-3.849-1.026,15.986,15.986,0,0,0-9.61,1.168,11.547,11.547,0,0,0-4.118,3.541,19.25,19.25,0,0,0-2.143,3.849,14.991,14.991,0,0,0-1.283,3.849,28.332,28.332,0,0,0,1.783-3.554c1.09-2.13,2.81-5.247,6.107-6.89a16.937,16.937,0,0,1,9.186-1.283C574.679,444.382,576.167,444.716,576.193,444.588Z" transform="translate(-435.212 -123.597)" fill="#263238"/>
      <path id="Caminho_226" data-name="Caminho 226" d="M663.48,371.7s13.715,4.927,13.779,20.323c.1,29.509-59.557,61.969-59.557,61.969l-79.4-52.6-4.978-2.014S640.5,359.064,663.48,371.7Z" transform="translate(-441.401 -144.548)" fill="#263238"/>
      <path id="Caminho_227" data-name="Caminho 227" d="M568.55,424.115a12.907,12.907,0,0,0,2.066-1.4c1.283-.937,3.156-2.348,5.44-4.106,4.542-3.5,10.726-8.493,17.385-14.2s12.509-11.072,16.679-15.037c2.078-1.976,3.746-3.605,4.875-4.747a13.413,13.413,0,0,0,1.694-1.835,15.536,15.536,0,0,0-1.912,1.6l-5.042,4.555c-4.26,3.849-10.174,9.148-16.82,14.844s-12.753,10.752-17.2,14.382l-5.3,4.26a15.282,15.282,0,0,0-1.86,1.681Z" transform="translate(-431.431 -140.716)" fill="#455a64"/>
      <path id="Caminho_228" data-name="Caminho 228" d="M620.5,379.782a15.807,15.807,0,0,0-7.7.706c-4.144,1.206-6.928,3.413-6.8,3.567s3.028-1.629,7.031-2.8S620.5,380.039,620.5,379.782Z" transform="translate(-420.834 -141.621)" fill="#455a64"/>
      <path id="Caminho_229" data-name="Caminho 229" d="M613.591,376.12a9.737,9.737,0,0,0-4.7,3.541c-2.117,2.566-2.681,5.324-2.476,5.35s1.1-2.386,3.1-4.837S613.668,376.338,613.591,376.12Z" transform="translate(-420.726 -142.604)" fill="#455a64"/>
      <path id="Caminho_230" data-name="Caminho 230" d="M639.151,448.888c0-.09-.949-.282-2.053.616a7.416,7.416,0,0,0-2.284,4.606,8.891,8.891,0,0,0,.719,5.132c.564,1.206,1.18,1.783,1.283,1.719a14.4,14.4,0,0,0-.718-1.924,10.481,10.481,0,0,1-.449-4.76,7.967,7.967,0,0,1,1.873-4.3C638.329,449.055,639.163,449.055,639.151,448.888Z" transform="translate(-412.71 -122.034)" fill="#263238"/>
      <path id="Caminho_231" data-name="Caminho 231" d="M664.588,340.064l-22.581,60.9a8.775,8.775,0,0,1-8.339,5.722L509.32,405.047V395.6l46.188,1.681,19.578-60.737a4.978,4.978,0,0,1,4.734-3.438l80.213.231a4.965,4.965,0,0,1,4.555,6.723Z" transform="translate(-448.193 -154.775)" fill="#e0e0e0"/>
      <path id="Caminho_232" data-name="Caminho 232" d="M664.636,340.092V339.9a3.288,3.288,0,0,0,.154-.565,4.811,4.811,0,0,0,0-2.3,4.875,4.875,0,0,0-4.439-3.644H580.6a5.453,5.453,0,0,0-3.31.731,4.863,4.863,0,0,0-2.066,2.707L555.7,397.468v.141h-.154l-46.188-1.668.205-.205v9.443l-.192-.192,78.186,1.039,33.986.475,7.839.1h3.849a8.98,8.98,0,0,0,3.605-.526,8.558,8.558,0,0,0,4.991-4.8c.821-2.207,1.63-4.375,2.425-6.479,6.3-16.9,11.393-30.548,14.908-39.991,1.771-4.7,3.13-8.352,4.067-10.841s1.437-3.759,1.437-3.759-.449,1.283-1.36,3.849l-4.029,10.752c-3.49,9.456-8.532,23.094-14.793,40.029l-2.412,6.5a8.878,8.878,0,0,1-5.132,4.965,9.442,9.442,0,0,1-3.734.565h-3.849l-7.826-.1-33.986-.423-78.2-1.014h-.192v-9.853h.205l46.188,1.694-.192.141,19.578-60.621a5.132,5.132,0,0,1,2.207-2.887,5.786,5.786,0,0,1,3.49-.77h20.092l23.44.1,33.46.154h2.771a4.978,4.978,0,0,1,4.5,3.759,4.76,4.76,0,0,1,0,2.309,4.516,4.516,0,0,1-.257.731Z" transform="translate(-448.241 -154.804)" fill="#263238"/>
      <path id="Caminho_233" data-name="Caminho 233" d="M587.883,356.593a5.594,5.594,0,0,1,6.043.641,4.914,4.914,0,0,1,1.18,5.363,5.286,5.286,0,0,1-4.542,3.169,4.76,4.76,0,0,1-4.8-3.169c-.577-1.989,0-4.952,2.117-6" transform="translate(-426.619 -148.3)" fill="#fff"/>
      <path id="Caminho_234" data-name="Caminho 234" d="M648.014,455.854s-112.057-71.771-117-74.593c-4.208-2.4-15.473-9.327-26.571-6.261s-21.054,13.048-26.032,27.559c-2.835,8.314-4.183,22.491-4.811,33.127a49.139,49.139,0,0,0,11.547,35.039,31.472,31.472,0,0,0,13.984,9.93c1.168.359,2.386.667,3.631.937,21.208,4.606,43.006-4.914,54.925-23.094l2.566-3.977s73.387,26.943,74.529,26.571Z" transform="translate(-458.331 -143.138)" fill="#263238"/>
      <path id="Caminho_235" data-name="Caminho 235" d="M536.925,385.293s-.1,0-.282-.167l-.783-.539c-.693-.475-1.706-1.168-3.028-2.027a60.093,60.093,0,0,0-11.906-6.043,31.739,31.739,0,0,0-8.981-1.886,25.66,25.66,0,0,0-10.264,1.681,33,33,0,0,0-9.9,6,45.063,45.063,0,0,0-4.4,4.324,31.7,31.7,0,0,0-3.644,5.132,52.6,52.6,0,0,0-4.824,11.547c-1.065,3.913-1.912,7.775-2.707,11.419a103.816,103.816,0,0,0-2.566,19.655,71.345,71.345,0,0,0,1.013,13.33c.244,1.565.526,2.758.693,3.58l.18.937a1.016,1.016,0,0,1,0,.321,1.657,1.657,0,0,1-.1-.308,5.564,5.564,0,0,0-.244-.924c-.218-.808-.539-1.989-.821-3.554a66.637,66.637,0,0,1-1.283-13.382,100.758,100.758,0,0,1,2.476-19.745c.8-3.669,1.617-7.505,2.669-11.47a54.067,54.067,0,0,1,4.888-11.7,32.751,32.751,0,0,1,3.721-5.273,45.066,45.066,0,0,1,4.478-4.388,33.627,33.627,0,0,1,10.11-6.081,26.173,26.173,0,0,1,10.559-1.668,32.577,32.577,0,0,1,9.084,2,56.284,56.284,0,0,1,11.893,6.274c1.283.9,2.3,1.629,2.964,2.143l.744.59a1.131,1.131,0,0,1,.27.218Z" transform="translate(-458.451 -143.193)" fill="#455a64"/>
      <path id="Caminho_236" data-name="Caminho 236" d="M501.35,434.509a5.97,5.97,0,0,0,.616.282l1.835.719,7.108,2.771,26.43,9.956c11.226,4.183,24.685,9.173,39.773,14.665s31.805,11.547,49.665,17.551l.334.1.154-.3c2.8-5.363,5.761-11.008,8.763-16.743l4.465-8.558.18-.334-.321-.192-85.563-54.322-25.66-16.217-6.979-4.362-1.822-1.1a6.864,6.864,0,0,0-.629-.359s.192.154.59.423l1.783,1.18,6.9,4.478,25.57,16.422,85.422,54.54-.141-.526c-1.411,2.707-2.925,5.607-4.465,8.532l-8.75,16.743.475-.205c-17.846-6.03-34.577-12.022-49.677-17.461l-39.773-14.485-26.519-9.725-7.159-2.566-1.86-.654Z" transform="translate(-450.448 -142.052)" fill="#455a64"/>
      <path id="Caminho_237" data-name="Caminho 237" d="M507.135,248.457a57.573,57.573,0,0,1-4.978-11.919,19.412,19.412,0,0,1,.667-12.676c1.039-2.3,2.681-4.311,3.5-6.7,1.116-3.284.654-7.159,2.694-9.969,3.169-4.4,9.969-3.374,14.883-5.671,3.849-1.8,6.5-5.658,10.521-6.954,3.515-1.129,7.352,0,10.739,1.411s6.71,3.3,10.367,3.772a70.355,70.355,0,0,0,7.891,0,10.379,10.379,0,0,1,7.274,2.566c1.847,1.86,2.232,5.312.231,7.018,4.606-.783,8.981,3.849,8.878,8.481s-3.58,8.776-7.826,10.726-9.084,2.066-13.741,1.694c-13.176-1.026-26.417-6.03-35.385-15.729" transform="translate(-450.434 -194.111)" fill="var(--primary-color)"/>
      <path id="Caminho_238" data-name="Caminho 238" d="M510.1,229.87l-8.981,65.24a19.578,19.578,0,0,0,17.692,22.183h0a19.6,19.6,0,0,0,21.118-16.871c.667-4.914,1.283-8.981,1.283-9.507,0,0,16.82.718,20.284-15.55,1.668-7.865,3.849-24.377,5.543-39.272a30.984,30.984,0,0,0-24.634-33.961l-1.578-.308C523.663,199.4,512.026,212.639,510.1,229.87Z" transform="translate(-450.565 -192.009)" fill="#ffbe9d"/>
      <path id="Caminho_239" data-name="Caminho 239" d="M536.876,273.264A38.772,38.772,0,0,1,516.81,263s2.681,12.753,19.245,14.536Z" transform="translate(-446.073 -174.616)" fill="#eb996e"/>
      <path id="Caminho_240" data-name="Caminho 240" d="M547.861,239.855a2.374,2.374,0,0,1-2.72,1.9,2.271,2.271,0,0,1-1.976-2.566,2.374,2.374,0,0,1,2.707-1.912,2.271,2.271,0,0,1,1.989,2.579Z" transform="translate(-438.621 -181.904)" fill="#263238"/>
      <path id="Caminho_241" data-name="Caminho 241" d="M550.564,234.933c-.346.244-1.847-1.411-4.362-1.9s-4.593.385-4.8,0c-.1-.167.3-.654,1.283-1.078a6.416,6.416,0,0,1,3.849-.4,6.236,6.236,0,0,1,3.4,1.9C550.59,234.228,550.744,234.831,550.564,234.933Z" transform="translate(-439.118 -183.551)" fill="#263238"/>
      <path id="Caminho_242" data-name="Caminho 242" d="M529.641,236.7a2.374,2.374,0,0,1-2.72,1.9,2.258,2.258,0,0,1-1.976-2.566,2.361,2.361,0,0,1,2.707-1.9,2.271,2.271,0,0,1,1.989,2.566Z" transform="translate(-443.777 -182.793)" fill="#263238"/>
      <path id="Caminho_243" data-name="Caminho 243" d="M531.3,231.466c-.359.244-1.86-1.411-4.375-1.912s-4.593.4-4.8,0c-.1-.167.3-.654,1.283-1.078a6.415,6.415,0,0,1,3.849-.4,6.312,6.312,0,0,1,3.4,1.886C531.31,230.761,531.464,231.351,531.3,231.466Z" transform="translate(-444.574 -184.535)" fill="#263238"/>
      <path id="Caminho_244" data-name="Caminho 244" d="M533.46,251.258a16.448,16.448,0,0,1,4.221.077c.654.064,1.283,0,1.475-.359a3.3,3.3,0,0,0,0-1.989c-.282-1.668-.59-3.413-.911-5.247-1.283-7.467-2-13.548-1.706-13.6s1.552,5.966,2.8,13.433c.282,1.835.565,3.58.834,5.26A3.849,3.849,0,0,1,540,251.4a1.668,1.668,0,0,1-1.283.731,4.273,4.273,0,0,1-1.116-.077,16.678,16.678,0,0,1-4.144-.8Z" transform="translate(-441.361 -183.915)" fill="#263238"/>
      <path id="Caminho_245" data-name="Caminho 245" d="M527.6,246.8c.411,0-.128,2.784,1.822,5.132s4.9,2.681,4.837,3.066c0,.18-.744.4-1.976.192a6.954,6.954,0,0,1-4.08-2.412,6.03,6.03,0,0,1-1.283-4.3C527.031,247.365,527.416,246.749,527.6,246.8Z" transform="translate(-443.22 -179.201)" fill="#263238"/>
      <path id="Caminho_246" data-name="Caminho 246" d="M533.873,223.8c-.385.629-2.823-.192-5.838-.423s-5.543.09-5.812-.59c-.115-.334.423-.885,1.514-1.36a10.264,10.264,0,0,1,8.878.783C533.6,222.85,534.04,223.5,533.873,223.8Z" transform="translate(-444.545 -186.568)" fill="var(--primary-color)"/>
      <path id="Caminho_247" data-name="Caminho 247" d="M550.867,229.163c-.565.488-2.168-.449-4.234-.9s-3.849-.385-4.208-1.052c-.116-.334.269-.847,1.155-1.283a6.261,6.261,0,0,1,6.787,1.578C550.931,228.29,551.059,228.932,550.867,229.163Z" transform="translate(-438.83 -185.221)" fill="var(--primary-color)"/>
      <path id="Caminho_248" data-name="Caminho 248" d="M510.024,233.558c-.257-.18-10.546-5.555-12.419,5.671s9.789,10.79,9.853,10.469S510.024,233.558,510.024,233.558Z" transform="translate(-451.566 -183.356)" fill="#ffbe9d"/>
      <path id="Caminho_249" data-name="Caminho 249" d="M504.1,244.106a3.544,3.544,0,0,1-.565.192,1.988,1.988,0,0,1-1.475-.205c-1.116-.641-1.8-2.681-1.514-4.721a6.646,6.646,0,0,1,1.014-2.707,2.335,2.335,0,0,1,1.719-1.283,1.014,1.014,0,0,1,1.065.731.921.921,0,0,1,0,.577c0,.026.269-.141.257-.616a1.283,1.283,0,0,0-.321-.783,1.488,1.488,0,0,0-1.039-.462,2.784,2.784,0,0,0-2.335,1.4,6.671,6.671,0,0,0-1.193,3.015c-.308,2.271.5,4.58,2.04,5.324a2.168,2.168,0,0,0,1.847,0C504.038,244.375,504.141,244.132,504.1,244.106Z" transform="translate(-450.929 -182.588)" fill="#eb996e"/>
      <path id="Caminho_250" data-name="Caminho 250" d="M568.826,221.468c-1.924,4.144-11.829,5.748-19.091,3.554-6.684-2.014-9.122-6.261-13.369-9.969-2.694-2.348-2.694-2.348-7.095-2.8-3.554-.372-6.415,3.169-9.1,5.517,1.5,8.981-2.463,17.757-6.338,25.929a4.5,4.5,0,0,1-1.809,2.322c-1.514.744-3.336-.436-4.247-1.873a14.113,14.113,0,0,1-1.578-7.878,46.882,46.882,0,0,1,3.733-18.065A31.742,31.742,0,0,1,521.663,204.1a30.15,30.15,0,0,1,22.324-3.7,37.053,37.053,0,0,1,19.566,11.739,21.632,21.632,0,0,1,5.273,9.263" transform="translate(-449.091 -192.538)" fill="var(--primary-color)"/>
      <path id="Caminho_251" data-name="Caminho 251" d="M537.253,240.28a20.127,20.127,0,0,1,.513-2.566,10.932,10.932,0,0,1,3.977-5.773,10.572,10.572,0,0,1,9.93-1.424,10.453,10.453,0,0,1,0,19.617,10.546,10.546,0,0,1-9.931-1.437,10.867,10.867,0,0,1-3.977-5.761c-.449-1.642-.411-2.566-.513-2.566a2.764,2.764,0,0,0,0,.706,8.211,8.211,0,0,0,.231,1.989,10.752,10.752,0,0,0,3.926,6.2,11.266,11.266,0,1,0-.051-17.872,10.726,10.726,0,0,0-3.926,6.184,8.369,8.369,0,0,0-.231,2A2.567,2.567,0,0,0,537.253,240.28Z" transform="translate(-440.304 -184.228)" fill="#263238"/>
      <path id="Caminho_252" data-name="Caminho 252" d="M516.495,236.643a20.127,20.127,0,0,1,.513-2.566,10.892,10.892,0,0,1,3.977-5.773,10.546,10.546,0,0,1,9.93-1.424,10.44,10.44,0,0,1,0,19.6,10.546,10.546,0,0,1-9.93-1.424,10.892,10.892,0,0,1-3.977-5.773c-.449-1.629-.411-2.566-.513-2.566a2.692,2.692,0,0,0,0,.693,8.369,8.369,0,0,0,.231,2,10.752,10.752,0,0,0,3.926,6.2,11.246,11.246,0,1,0,.013-17.782,10.789,10.789,0,0,0-3.926,6.2,8.372,8.372,0,0,0-.231,2A2.564,2.564,0,0,0,516.495,236.643Z" transform="translate(-446.169 -185.235)" fill="#263238"/>
      <path id="Caminho_253" data-name="Caminho 253" d="M533.592,234.7c.115.218,1.54-.449,3.195.064s2.489,1.835,2.707,1.706,0-.475-.321-1.039A3.964,3.964,0,0,0,534.439,234C533.81,234.259,533.528,234.593,533.592,234.7Z" transform="translate(-441.326 -182.902)" fill="#263238"/>
      <path id="Caminho_254" data-name="Caminho 254" d="M504.74,232.068c0,.257,3.58.4,7.993.346s7.98-.321,7.98-.577-3.58-.4-7.993-.334S504.74,231.811,504.74,232.068Z" transform="translate(-449.489 -183.533)" fill="#263238"/>
      <path id="Caminho_255" data-name="Caminho 255" d="M564.564,208.31a3.3,3.3,0,0,1-.18,1.065,5.233,5.233,0,0,1-1.681,2.412,7.415,7.415,0,0,1-4.042,1.655,20.194,20.194,0,0,1-5.35-.282,94.115,94.115,0,0,1-9.52-1.912c-1.206-.321-2.181-.59-2.835-.8l-.77-.244-.257-.1h.269l.783.192,2.848.706c2.412.577,5.773,1.283,9.52,1.848a20.375,20.375,0,0,0,5.286.3,7.364,7.364,0,0,0,3.952-1.552,5.286,5.286,0,0,0,1.694-2.3C564.512,208.695,564.525,208.3,564.564,208.31Z" transform="translate(-439.53 -190.093)" fill="#fff"/>
      <path id="Caminho_256" data-name="Caminho 256" d="M564.772,210.29a10.367,10.367,0,0,1-.962,3.079,13.138,13.138,0,0,1-12.663,7.557,10.38,10.38,0,0,1-3.156-.6,5.556,5.556,0,0,1,.847.167,15.8,15.8,0,0,0,2.322.257,13.343,13.343,0,0,0,12.471-7.467,12.394,12.394,0,0,0,.872-2.168,6.414,6.414,0,0,1,.27-.821Z" transform="translate(-437.249 -189.532)" fill="#fff"/>
    </g>
  </g>
</svg>
